<svg id="Layer_1" data-name="Layer 1" xmlns="http://www.w3.org/2000/svg" viewBox="0 0 211.94 51.36"><defs><style>.cls-1{fill:#fff;}</style></defs><title>basic logo</title><path class="cls-1" d="M11.4,5.93H25.05c11,0,18.6,7.55,18.6,17.4v0.1c0,9.85-7.6,17.5-18.6,17.5H11.4v-35Zm7.7,7V34h6c6.3,0,10.55-4.25,10.55-10.45v-0.1c0-6.2-4.25-10.55-10.55-10.55h-6Z"/><path class="cls-1" d="M48.4,27.68v-0.1c0-7.65,5.45-14,13.25-14,9,0,13.05,7,13.05,14.55,0,0.6-.05,1.3-0.1,2H56a6.22,6.22,0,0,0,6.55,5.25A8.78,8.78,0,0,0,69,32.68l4.35,3.85a13.41,13.41,0,0,1-11,5C54.35,41.53,48.4,35.88,48.4,27.68Zm18.9-2.25c-0.45-3.4-2.45-5.7-5.65-5.7s-5.2,2.25-5.8,5.7H67.3Z"/><path class="cls-1" d="M76.69,14.13h8.05l6,18,6.05-18h7.9l-10.55,27h-6.9Z"/><path class="cls-1" d="M109.34,23.53v-0.1c0-9.9,7.4-18.1,17.5-18.1,6.25,0,10,2.3,13.6,5.6l-1.85,1.9c-3-3-6.55-5.15-11.8-5.15-8.4,0-14.75,6.85-14.75,15.65v0.1c0,8.85,6.45,15.75,14.8,15.75,5,0,8.5-2,12.05-5.45l1.75,1.7c-3.7,3.65-7.7,6.1-13.9,6.1C116.74,41.53,109.34,33.58,109.34,23.53Z"/><path class="cls-1" d="M145,28.28v-0.1a13.18,13.18,0,0,1,13.15-13.35,13,13,0,0,1,13.05,13.25v0.1A13.18,13.18,0,0,1,158,41.53,13,13,0,0,1,145,28.28Zm23.55,0v-0.1c0-6.15-4.6-11.05-10.5-11.05-6.05,0-10.4,5-10.4,11v0.1c0,6.15,4.6,11.05,10.5,11.05C164.19,39.23,168.54,34.28,168.54,28.28Z"/><path class="cls-1" d="M178.74,15.43h2.45v4.75a10,10,0,0,1,9.2-5.35c6.45,0,10.2,4.4,10.2,10.5v15.6h-2.45V25.78c0-5.25-3-8.7-8.1-8.7a8.74,8.74,0,0,0-8.85,9.1V40.93h-2.45V15.43Z"/></svg>