<?xml version="1.0" encoding="utf-8"?>
<!-- Generator: Adobe Illustrator 20.0.0, SVG Export Plug-In . SVG Version: 6.00 Build 0)  -->
<svg version="1.1" id="Layer_1" xmlns="http://www.w3.org/2000/svg" xmlns:xlink="http://www.w3.org/1999/xlink" x="0px" y="0px"
	 viewBox="0 0 269.6 353.3" style="enable-background:new 0 0 269.6 353.3;" xml:space="preserve">
<style type="text/css">
	.st0{fill:#FFFFFF;}
</style>
<path class="st0" d="M73.7,302.8H74l-18.5-0.2c3-0.9,4.5-2.6,4.5-4.9l-0.4-47.9c-0.2-1.8-1.3-3.4-3-4.1h13.5
	c-0.1,0.1-0.2,0.1-0.3,0.2h0.8c7.1,2.7,13.8,6.4,19.8,11.1c0.4,7.9,0.7,15.3,0.7,22.2c0,1.9-0.1,4.7-0.2,8.5c-0.5,2.1-2.8,5-6.9,8.6
	c-2.3,2-4.6,4-7.1,6l-2.4,0.4L73.7,302.8z M68.7,295.1c0.1,0.2,0.1,0.4,0.2,0.6c1.7,1.1,3.6,1.9,5.5,2.4c1.2-0.7,2.4-1.6,3.5-2.5
	c1.1-0.9,2.1-2,2.7-3.3v-33.7c-0.6-1.8-2.1-3.4-4.5-4.8c-1.4-0.7-3.4-1.7-6.2-3c-0.4,1.3-0.7,2.7-0.7,4.1c-0.1,1.4-0.3,2.7-0.7,4.1
	L68.7,295.1z"/>
<path class="st0" d="M114.3,273l-2,4.2c-2.2-1.3-4.7-1.9-7.2-1.9c-1.6,0-2.6,0.2-3,0.6l0.6,13.4c0.6,1.1,1.6,2,2.8,2.5
	c1.2-1.6,1.9-3.4,2.2-5.3c0.1-0.2,0.2-1.6,0.4-4.2l3.6,4.6l-5,7.1l-4.2,0.1l-8.3-7.2c-0.5-2.3-0.7-4.7-0.7-7.1c0-4,0.4-8,1.1-12
	l9.1-7.2c0.5-0.2,1.1-0.2,1.6,0.1l6.6,4.3L114.3,273z M108.5,273.5l-4.2-9.4c-0.4-0.5-0.6-0.7-0.7-0.7c-0.2,0-0.4,0.2-0.7,0.6
	l-1,9.3C104.1,273,106.3,273.1,108.5,273.5L108.5,273.5z"/>
<path class="st0" d="M135,262.7l-0.5,20l-8.8,7c-2.2,1.7-3.5,2.6-4.1,2.6c-0.2,0-0.4-0.1-0.6-0.2l-4.6-6.7
	c-0.1-0.1-0.2-8.9-0.2-26.3c0-0.4,0.1-0.6,0.4-0.6c0.5,0,1.5,0.5,2.8,1.6c2.3,2,3.4,3,3.3,3c0.1,5.5,0.3,12.9,0.7,22
	c0.5,1.1,1.6,1.4,3.1,1c1-1.1,2-2.3,2.8-3.5c0.1-2.4,0.1-4.8,0.1-7.1c0-4.2-0.3-12.4-0.4-15.1c0.7,0.6,1.6,1,2.5,1.2
	C133.7,262.3,134.9,262.7,135,262.7z"/>
<path class="st0" d="M172.1,284.1c0.3,1.4-1.3,3.6-4.8,6.4c-4.3,3.5-8.4,5.5-12.5,6.1l-2.4-0.4c-2.4-2-4.8-4-7.1-6
	c-4.1-3.6-6.4-6.5-6.9-8.6c-0.2-3.7-0.2-6.6-0.2-8.5c0-7,0.2-14.4,0.6-22.2c6-4.6,12.7-8.4,19.8-11.1h2l7.2,9c1,1.1,1.7,2.4,2.1,3.8
	l-11.3,8.7c1.2-1.4,2-3.2,2.1-5c0-0.4-0.1-0.8-0.2-1.1c0.1-0.2,0.1-0.5,0.1-0.7c0-0.9-1-3.8-2.9-8.9c-1.5,0.7-3.6,1.6-6.3,2.9
	c-1.4,0.9-2.4,2.2-2.9,3.8V286c0.6,1.3,1.5,2.5,2.7,3.3c1,1,2.2,1.9,3.5,2.5c4.1-1.3,6.5-2.7,7.3-4.2v-7.7l9.8,2.1L172.1,284.1z"/>
<path class="st0" d="M190.2,276.9c0.3,1.3-1.2,2.9-4.5,4.6c-2.1,1.2-4.3,2-6.7,2.4l-1.5-0.2c-5.5-4.2-8.4-7-8.7-8.1
	c-0.1-2.6,0.1-8.9,0.7-18.9c3.6-2.6,7.5-4.7,11.6-6.2l5.8,4l0.6,1.1c1.2,1.1,1.9,3.6,2.1,7.3C189.9,264.7,190.1,269.4,190.2,276.9z
	 M182.4,278.9c0-14.2-0.5-22.6-1.6-25.2l-2.6,1.6c-0.8,0.5-1.4,1.3-1.8,2.2l0.4,21.4c0.4,1.1,1.2,1.9,2.2,2.4
	C180.4,280.9,181.6,280,182.4,278.9L182.4,278.9z"/>
<path class="st0" d="M189.9,255.1c2.8-1.9,5.9-4.3,9.4-7.1v7.3c1-1.2,2.3-2.7,3.9-4.3c2.3-1.7,3.6-2.6,4.1-2.6
	c0.2,0,0.4,0.1,0.6,0.2l4.6,6.7c0.1,0.1,0.1,8.9,0.1,26.6c0,0.5-0.3,1-0.8,1.1l-7.5,4.4v-0.3c1-0.8,1.7-1.8,2-3
	c-0.1-9.1-0.3-18.6-0.7-28.5c-0.5-1.1-1.6-1.4-3.1-1c-1,1.1-2,2.3-2.9,3.5c-0.2,6.2,0,12.8,0.4,19.9c-0.1,1.5,1,2.9,2.5,3.2
	c-0.8,0-1.9,0-3.5-0.1c-1.5-0.1-2.7-0.1-3.5-0.1c-0.5,0-1.2,0-2.2,0.1c-1,0.1-1.8,0.1-2.2,0.1c0.9-0.3,1.8-0.8,2.5-1.5
	c0.3-0.5,0.4-1.1,0.3-1.6v-23.1L189.9,255.1z"/>
<path class="st0" d="M138.4,305.4l-4.7,6.5l-0.5,1.2l0.1,3.7c0.5,0.4,1.1,0.5,1.7,0.5l0.1,0.3h-5.8l0.1-0.3c0.6,0,1.1-0.1,1.6-0.3
	v-4.4l-4.7-6.8l-0.5-0.7c-0.3-0.5-1-0.7-2.2-0.7l-0.1-0.4c2.1,0.2,4.3,0.2,6.4,0.1l-0.4,0.4c-1.1,0-1.7,0.1-1.7,0.3l5.1,7.1l4.8-6.5
	c-0.6-0.3-1.3-0.4-2-0.3l-0.5-0.3h5.1l-0.2,0.3C139.2,304.9,138.6,305.1,138.4,305.4z"/>
<path class="st0" d="M146.4,311.7c0.1-1.3-0.3-2-1.1-1.9l-4.3,0.1l0.1,3.5c0.1,0.3,0.9,0.3,1.9,0.2l0.7-1.1l0.4,0.1
	c-0.5,1-0.8,2.2-0.7,3.3l-0.3-0.1l-0.2-1.5c-0.6-0.2-1.3-0.1-1.9,0.1v3.1c0,0.5,2.4,0.6,3.8,0.4c0.6,0.1,0.9-0.4,1-1.3l0.4-0.2
	l-0.1,4l-0.4-0.2c0-1.5-0.2-1.6-0.6-1.7l-6.8,0.1l0.1-0.3c0.8,0,1.3-0.2,1.3-0.6V310c-0.6-0.2-1.2-0.4-1.8-0.4l-0.2-0.2l7.8-0.1
	c0.6,0,1-0.5,1.1-1.6l0.4-0.2l-0.1,4.5L146.4,311.7z"/>
<path class="st0" d="M146.5,315.7l-0.1-0.2c0.6,0,1.1-0.2,1.5-0.6l3.1-8.2c-0.1-0.4-0.6-0.6-1.6-0.4l-0.1-0.3h5.7l-0.1,0.3
	c-1-0.1-1.6,0.1-1.6,0.6l3.5,11.1c0.5,0.1,1.1,0.2,1.6,0.2l-0.1,0.3c-1.7,0-3.3,0-4.8,0l0.3-0.3c0.7,0,1.2-0.1,1.3-0.3l-1.7-5.7
	c-1.3-0.1-2.6,0-3.9,0.1l-0.9,2.7c0.5,0.3,1,0.4,1.6,0.3l0.1,0.4L146.5,315.7z M153.3,311.8l-1.4-4.9c-0.1,0-0.3,0-0.4,0.3l-1.6,4.3
	L153.3,311.8z"/>
<path class="st0" d="M157.5,305.1c1.8,0.2,6.6,0,7.9,0.1c2.6,0.6,3.1,1.8,2.7,3.5s-2,2.7-4.3,3.3l4.2,4.2c0.1,0.2,0.6,0.3,1.3,0.3
	l0.1,0.3h-5l0.2-0.3c0.9-0.1,1.4-0.2,1.5-0.4l-3.6-3.7c-0.4-0.3-0.5-0.5-0.1-0.7c2.8-0.8,4.2-1.9,3.8-3.6s-1.4-2.6-4.3-2.5
	c-0.5-0.1-0.8,0.1-0.9,0.4v8.7c0.1,0.6,0.7,0.8,1.7,0.8l0.1,0.3h-5.8l0.1-0.3c1.1,0.1,1.8-0.2,2-0.8v-8.7c-0.1-0.4-0.7-0.6-1.6-0.6
	L157.5,305.1z"/>
<path class="st0" d="M183.9,307.1l-0.4-0.3c-0.1-2.5-0.5-3.6-1.2-3.9c-2.4-0.7-4-0.2-4.6,1.4c-0.7,1.6,0.4,2.7,3.2,3.2
	c2.8,0.5,4.2,2.1,4.2,4.8c0,2.7-1.3,4.2-3.8,4.5c-2.5,0.3-4.2-0.1-5-1.3c-0.4,0-0.6,0.9-0.6,2.6l-0.5,0.4c0.2-2.6,0.2-5.2-0.1-7.9
	l0.5,0.3c0.1,2.2,0.7,3.7,1.8,4.6c1.1,0.9,2.5,1,3.7,0.5c1.4-0.5,2.1-1.9,1.8-3.3c-0.2-1.6-1.5-2.7-3.9-3.1c-2.4-0.4-3.4-1.8-3-4.2
	c0.4-2.4,2.5-3.9,5.9-3.2c0.9,0.2,1.4,0.4,1.7-1.4l0.4-0.2C183.6,302.6,183.5,304.9,183.9,307.1z"/>
<path class="st0" d="M186.1,307.5c1.8,0.2,3.6,0.2,5.4,0.1l-0.1,0.4c-1.1,0-1.7,0.2-1.7,0.5v9c0.2,0.5,0.8,0.7,1.6,0.7l0.2,0.4h-5.8
	l0.1-0.3c0.8,0.1,1.5-0.2,2-0.8v-8.9c-0.1-0.4-0.7-0.6-1.6-0.6L186.1,307.5z"/>
<path class="st0" d="M196.4,304.6l-0.2,0.3c-0.9,0.1-1.2,0.3-1,0.6l3.6,4.5l3.9-4c-0.7-0.3-1.5-0.4-2.3-0.4l-0.3-0.3h6l-0.4,0.3
	c-0.7-0.1-1.3,0.1-1.9,0.5l-4.5,4.6l5.6,6.9c0.4,0.2,0.9,0.2,1.4,0.2l0.4,0.4h-5.9l0.2-0.3c1.2,0,1.7-0.3,1.5-0.8l-4.3-5.2l-3.9,3.8
	c-0.1,0.4,0.4,0.6,1.7,0.5l0.3,0.3h-5.1l0.2-0.3l1.5-0.1l4.7-5l-4.7-5.6c-0.2-0.3-0.9-0.5-1.9-0.5l-0.2-0.3L196.4,304.6z"/>
<g>
	<path class="st0" d="M61,55.8c0-0.3,0-0.7-0.1-1.2c-0.1-0.5-3.6-5.7-4.5-6.5c-0.2-0.1-0.9-0.2-1.3-0.3l-0.1-0.4
		c0.3,0,1.5,0.1,3.2,0.1c1,0,2.3,0,2.5-0.1l-0.1,0.4c-0.3,0.1-1.2,0.2-1.6,0.3c1.1,1.9,3,4.6,3.5,5.6c0.3-0.5,3.1-4.8,3.2-5.6
		c-0.4-0.1-1.2-0.2-1.4-0.3l-0.1-0.4c0.3,0,1.3,0.1,2.3,0.1c0.8,0,1.8,0,2.2-0.1l-0.1,0.4c-0.3,0.1-0.9,0.1-1.2,0.3
		c-0.4,0.1-4.2,5.5-4.4,6.3c-0.1,0.3-0.1,0.9-0.1,1.3v0.7c0,0.5,0,3,0.1,3.4c0.2,0.1,1.4,0.2,1.8,0.3l0,0.4c-0.4,0-2-0.1-3.3-0.1
		c-0.7,0-2,0-2.5,0.1l0.1-0.4c0.3,0,1.2-0.1,1.6-0.3c0.1-0.3,0.1-2.3,0.1-3.5V55.8z"/>
	<path class="st0" d="M70.1,58.7c-1.3-1.4-1.8-2.7-1.8-4.4c0-3.6,3-6.9,8.1-6.9c1.9,0,3.5,0.3,5.1,1.5c1.5,1.1,2.2,2.8,2.2,4.6
		c0,4.5-3.4,7.4-7.9,7.4C74,60.7,71.8,60.4,70.1,58.7z M81.5,54.7c0-3.9-2.7-6.7-5.8-6.7c-2.5,0-5.3,1.7-5.3,5.5
		c0,3.3,2.6,6.5,6.2,6.5C79.3,60,81.5,57.6,81.5,54.7z"/>
	<path class="st0" d="M87,52.3c0-1.7,0-3.6-0.1-4.2c-0.4-0.1-1-0.2-1.5-0.3l-0.1-0.4c0.5,0,1.7,0.1,3.1,0.1c0.8,0,2.3,0,2.7-0.1
		l-0.1,0.4c-0.5,0.1-1.3,0.1-1.9,0.3c-0.1,0.3-0.1,2.6-0.1,4.2v2.4c0,3.9,1.7,5.2,3.6,5.2c1.2,0,2-0.3,2.6-0.9
		c1-0.9,1.2-2.6,1.2-4.8v-1.7c0-0.6,0-4-0.1-4.6c-0.4-0.1-1.5-0.2-2-0.3l-0.1-0.4c0.5,0,1.8,0.1,3,0.1c1,0,1.9,0,2.2-0.1l-0.1,0.4
		c-0.3,0.1-0.8,0.1-1.3,0.3c-0.1,0.3-0.1,2.6-0.1,3.1v0.9c0,0.7,0,1.6,0,2.3c0,2.1-0.4,3.8-1.8,5.1c-0.8,0.8-2,1.3-3.8,1.3
		c-3.8,0-5.6-2.4-5.6-5.6V52.3z"/>
	<path class="st0" d="M103.3,52.7c0-0.7,0-4.2-0.1-4.5c-0.3-0.1-1.6-0.2-2-0.2l-0.1-0.4l4,0c1.7,0,3.9,0,5.2,0.5
		c1,0.4,1.6,1.1,1.6,2.1c0,1.2-1.2,2.7-2.6,3.5c0.2,0.5,3.2,5.3,5.1,7.3l-0.8,0.1c-1.3-0.6-6.2-6.2-6.5-6.6
		c-0.7,0.1-1.5,0.1-1.8,0.1V55c0,1.2,0,4,0.1,4.9c0.3,0.1,1.5,0.2,1.9,0.3l0.1,0.4c-0.5,0-2.3-0.1-3.2-0.1c-0.8,0-2.7,0-3.1,0.1
		l0.1-0.4c0.3,0,1.4-0.1,1.9-0.3c0.1-0.5,0.1-4.1,0.1-6.1V52.7z M105.4,53.9c0.7,0,1.5-0.1,2.2-0.3c0.8-0.3,2.1-1.1,2.1-3
		c0-1.2-1.1-2.6-4.2-2.6c-0.1,0.8-0.1,4-0.1,5.3V53.9z"/>
	<path class="st0" d="M132.1,60.1c0.3,0,1.7-0.2,2-0.2c0-0.7-1.6-9-1.9-10.3h-0.1c-0.5,1.1-4.1,9.9-4.7,11c-0.5-1.1-4-10.3-4.2-11
		h-0.1c-0.5,2.8-1.6,7.9-1.5,10.3c0.3,0.1,1.4,0.2,1.6,0.3l0.1,0.4c-0.3,0-2.4-0.1-2.7-0.1c-0.5,0-1.4,0-2,0.1l0.1-0.4
		c0.3-0.1,0.9-0.1,1.3-0.2c0.4-1.2,2.4-10.2,2.7-11.7c-0.5-0.1-1.6-0.2-1.8-0.3l-0.1-0.4c0.2,0,1.7,0.1,2.6,0.1c0.8,0,2.2,0,2.8-0.1
		l-0.1,0.4c-0.5,0.1-1,0.2-1.4,0.3c0.5,1.7,2.8,7.7,3.3,9.1c0.5-1,3.7-8.7,3.8-9.1c-0.3-0.1-0.9-0.2-1.3-0.3l-0.1-0.4
		c0.6,0,1.8,0.1,2.5,0.1c0.6,0,2.1,0,2.6-0.1l-0.1,0.4c-0.3,0-1.2,0.2-1.5,0.3c0.3,2.1,2.1,10.6,2.4,11.7c0.5,0.1,1.2,0.2,1.5,0.3
		l0.1,0.4c-0.6,0-1.7-0.1-2.6-0.1c-0.8,0-2.9,0-3.4,0.1L132.1,60.1z"/>
	<path class="st0" d="M146.1,60.1c0.6-0.1,1.3-0.1,1.9-0.3c-0.3-1-1.6-4.9-1.9-5.4c-0.6,0-3.6,0.1-4.2,0.2c-0.1,0.3-1.1,3.7-1.3,5.1
		c0.5,0.1,1.1,0.2,1.6,0.3l0.1,0.4c-0.6,0-2.2-0.1-2.8-0.1c-0.5,0-1.7,0-2.1,0.1l0.1-0.4c0.5-0.1,1.1-0.1,1.6-0.3
		c0.7-1.2,4.3-11,4.6-11.7c-0.4-0.1-1-0.2-1.5-0.2l0-0.4c0.6,0,2.1,0.1,2.4,0.1c0.8,0,2.6,0,3.1-0.1l-0.1,0.4
		c-0.5,0.1-1,0.1-1.4,0.2c0.2,0.8,1.2,3.7,1.9,5.6c0.5,1.4,1.7,4.5,2.5,6.1c0.5,0.1,1.1,0.2,1.6,0.3l0.1,0.4c-0.2,0-2.1-0.1-3.1-0.1
		c-0.5,0-2.6,0-3.1,0.1L146.1,60.1z M144.1,48.4L144.1,48.4c-0.6,1.6-1.8,4.8-2,5.4l3.9,0.1C145.5,52.7,144.4,49.4,144.1,48.4z"/>
	<path class="st0" d="M165.4,57.9c0,0.7,0,1.7,0,2.2c-1.1,0.3-3.5,0.6-4.7,0.6c-1.2,0-3.3-0.1-4.9-0.9c-2.3-1.2-3.7-3.2-3.7-5.5
		c0-2.6,1.3-4.4,2.9-5.6c1.7-1.1,3.5-1.5,5.4-1.5c1.6,0,3.5,0.2,4.1,0.5c0.1-0.3,0.3-1.3,0.3-1.7l0.4-0.1c-0.1,0.7-0.3,4-0.3,5.7
		l-0.4-0.2c0-0.6-0.1-1.3-0.2-1.7c-0.5-0.6-1.8-1.8-4.8-1.8c-3.2,0-5.3,2.4-5.3,5.3c0,3,2.6,6.8,6.5,6.8c0.5,0,1.6-0.1,2.3-0.5
		c0-0.3,0.1-0.9,0.1-1.8v-1c0-0.6,0-1.1-0.1-1.5c-0.4,0-1.5-0.1-1.9-0.2l-0.1-0.4c1,0,2.4,0.1,3,0.1c0.9,0,2.7,0,2.9-0.1l-0.1,0.4
		c-0.2,0-1.2,0.1-1.6,0.2c-0.1,0.3-0.1,1.5-0.1,2V57.9z"/>
	<path class="st0" d="M172.9,54c0,2.4,0,5.5,0.1,5.8c0.5,0.1,1.6,0.2,1.9,0.3l0.1,0.4c-0.4,0-2.3-0.1-3.5-0.1c-0.6,0-2.3,0-2.9,0.1
		l0.1-0.4c0.3,0,1.6-0.2,1.9-0.3c0.1-0.8,0.1-4.2,0.1-6v-1.1c0-0.6,0-4-0.1-4.7c-0.4-0.1-1.6-0.2-1.9-0.3l-0.1-0.4
		c0.4,0,2,0.1,3.5,0.1c0.9,0,2.5,0,2.8-0.1l-0.1,0.4c-0.4,0-1.3,0.2-1.9,0.3c-0.1,0.4-0.1,2.5-0.1,4.8V54z"/>
	<path class="st0" d="M188.9,51.6c0-0.3-0.1-1.2-0.1-1.5c-0.3-0.8-2.1-2.1-4.4-2.1c-3.3,0-5.5,2.4-5.5,5.3c0,3.6,3,6.6,6.8,6.6
		c1.4,0,3.1-0.2,4.4-1l-0.3,0.8c-0.4,0.3-2.3,1.1-5.2,1.1c-0.7,0-2.7-0.1-4.2-0.8c-2.4-1.2-3.8-3.3-3.8-5.6c0-2.5,1.3-4.4,2.9-5.5
		c1.9-1.3,3.6-1.5,5.5-1.5c1.6,0,3.3,0.3,3.8,0.5c0.1-0.2,0.3-1.4,0.4-1.6l0.4-0.1c-0.3,2-0.4,3.9-0.4,5.7L188.9,51.6z"/>
	<path class="st0" d="M198.8,60.1c0.6-0.1,1.3-0.1,1.9-0.3c-0.3-1-1.6-4.9-1.9-5.4c-0.6,0-3.6,0.1-4.2,0.2c-0.1,0.3-1.1,3.7-1.3,5.1
		c0.5,0.1,1.1,0.2,1.6,0.3l0.1,0.4c-0.6,0-2.2-0.1-2.8-0.1c-0.5,0-1.7,0-2.1,0.1l0.1-0.4c0.5-0.1,1.1-0.1,1.6-0.3
		c0.7-1.2,4.3-11,4.6-11.7c-0.4-0.1-1-0.2-1.5-0.2l0-0.4c0.6,0,2.1,0.1,2.4,0.1c0.8,0,2.6,0,3.1-0.1l-0.1,0.4
		c-0.5,0.1-1,0.1-1.4,0.2c0.2,0.8,1.2,3.7,1.9,5.6c0.5,1.4,1.7,4.5,2.5,6.1c0.5,0.1,1.1,0.2,1.6,0.3l0.1,0.4c-0.2,0-2.1-0.1-3.1-0.1
		c-0.5,0-2.6,0-3.1,0.1L198.8,60.1z M196.7,48.4L196.7,48.4c-0.6,1.6-1.8,4.8-2,5.4l3.9,0.1C198.1,52.7,197,49.4,196.7,48.4z"/>
	<path class="st0" d="M207,52.6c0-1,0-3.9-0.1-4.5c-0.4-0.1-1.5-0.2-2-0.3l-0.1-0.4c0.5,0,2.1,0.1,3.2,0.1c1.2,0,3,0,3.4-0.1
		l-0.1,0.4c-0.4,0-1.4,0.2-2.2,0.3c-0.1,0.6-0.1,3.2-0.1,4.7v0.7c0,2.4,0,5.9,0.1,6.3c2.2,0,3.7-0.5,4.4-0.9
		c0.3-0.6,0.5-1.6,0.7-2.1l0.4-0.1c-0.4,1.6-0.7,3.6-1,6l-0.4-0.1c0-0.3,0.1-1.7,0.1-2.2c-0.4,0-4.4-0.1-5.4-0.1
		c-0.9,0-2.6,0-3.1,0.1l0.1-0.4c0.3,0,1.6-0.1,1.9-0.3c0.1-0.8,0.1-4.4,0.1-6.2V52.6z"/>
	<path class="st0" d="M40.4,80.7c-1.3-1.4-1.8-2.7-1.8-4.4c0-3.6,3-6.9,8.1-6.9c1.9,0,3.5,0.3,5.1,1.5c1.5,1.1,2.2,2.8,2.2,4.6
		c0,4.5-3.4,7.4-7.9,7.4C44.2,82.8,42.1,82.5,40.4,80.7z M51.8,76.7c0-3.9-2.7-6.7-5.8-6.7c-2.5,0-5.3,1.7-5.3,5.5
		c0,3.3,2.6,6.5,6.2,6.5C49.6,82,51.8,79.7,51.8,76.7z"/>
	<path class="st0" d="M57.7,75.1c0-1.3-0.1-4.2-0.1-4.9c-0.6-0.1-1.4-0.1-1.9-0.2l-0.1-0.4c0.6,0,4.1-0.1,5.3-0.1
		c3.6,0,4.1,1.5,4.1,2.4c0,0.5,0,1-0.5,1.7c-0.7,1.1-1.8,1.7-2.4,1.9v0.1c1.8,0.3,3.8,1.6,3.8,3.5c0,2.1-1.7,3.5-4.3,3.5
		c-0.3,0-0.9,0-1.5-0.1c-0.6,0-1.3-0.1-1.7-0.1c-0.4,0-2.3,0-2.8,0.1l0.1-0.4c0.4,0,1.5-0.1,1.9-0.3c0.1-1.3,0.1-4,0.1-5.6V75.1z
		 M59.7,75.6c0.6,0,1.5-0.1,2.2-0.6c0.7-0.5,1.1-1.4,1.1-2.3c0-1.6-1-2.6-2.5-2.6c-0.3,0-0.6,0-0.7,0.1c0,0.2-0.1,2.8-0.1,4.4V75.6z
		 M59.7,77.1c0,1.6,0.1,4.3,0.2,4.6c0.4,0.3,1.1,0.4,1.5,0.4c1.7,0,2.5-1,2.5-2.2c0-1.2-0.8-2.6-2-3.3c-0.7-0.4-1.7-0.5-2.2-0.4
		V77.1z"/>
	<path class="st0" d="M72.3,75.9v4.2c0,1.5-0.1,2.4-0.9,3.7c-0.5,0.8-1.2,1.6-3.2,3.1l-0.4-0.1c1.4-1.5,1.7-2.5,1.9-3.3
		c0.3-1,0.4-3.2,0.4-7.4V75c0-0.7,0-3.8-0.2-4.8c-0.4-0.1-1.9-0.2-2.4-0.3l-0.1-0.4c0.4,0,2.6,0.1,3.6,0.1c1,0,2.6,0,3.2-0.1
		l-0.1,0.4c-0.3,0-1.3,0.2-2,0.3c-0.1,0.6-0.1,4.3-0.1,4.7V75.9z"/>
	<path class="st0" d="M78,75.3c0-1.7-0.1-4.6-0.1-5.1c-0.3-0.1-1.5-0.2-1.9-0.3l-0.1-0.4c0.4,0,1,0,1.7,0.1c0.6,0,1.2,0,1.6,0
		c0.6,0,4.9,0,5.4-0.1c0.1-0.2,0.1-0.5,0.1-0.9l0.4-0.1c-0.1,0.4-0.3,3.2-0.4,3.8l-0.4-0.1c0-0.1,0-1,0-1.3
		c-0.3-0.5-3.2-0.8-4.1-0.8c-0.1,0.3-0.1,3.8-0.1,4.9v0.4c1.6,0,3.4-0.1,3.8-0.3c0.1-0.3,0.1-0.5,0.2-0.8l0.4,0
		c-0.1,0.3-0.4,2.8-0.5,3.4l-0.3-0.1c0-0.4,0-0.9,0-1.2c-0.6-0.3-2-0.4-3.6-0.4v0.4c0,1.1,0.1,5.1,0.1,5.7c1.8,0,3.6-0.1,4.4-0.6
		c0.2-0.6,0.3-1.2,0.4-1.6l0.4-0.1c-0.1,0.5-0.5,3.3-0.6,4.2l-0.4-0.1c0-0.5,0-0.8,0-1.1c-0.5-0.1-4.6-0.2-5.8-0.2
		c-0.6,0-2.1,0-2.8,0.1l0.1-0.4c0.3,0,1.4-0.1,1.9-0.3c0.1-0.3,0.1-3.7,0.1-5.7V75.3z"/>
	<path class="st0" d="M99.9,73.6c0-0.3-0.1-1.2-0.1-1.5c-0.3-0.8-2.1-2.1-4.4-2.1c-3.3,0-5.5,2.4-5.5,5.3c0,3.6,3,6.6,6.8,6.6
		c1.4,0,3.1-0.2,4.4-1l-0.3,0.8c-0.4,0.3-2.3,1.1-5.2,1.1c-0.7,0-2.7-0.1-4.2-0.8c-2.4-1.2-3.8-3.3-3.8-5.6c0-2.5,1.3-4.4,2.9-5.5
		c1.9-1.3,3.6-1.5,5.5-1.5c1.6,0,3.3,0.3,3.8,0.5c0.1-0.2,0.3-1.4,0.4-1.6l0.4-0.1c-0.3,2-0.4,3.9-0.4,5.7L99.9,73.6z"/>
	<path class="st0" d="M107.2,74.9c0-1.4,0-4.1-0.1-4.5c-2.9,0-4.3,0.5-4.8,0.8c-0.1,0.4-0.3,1.1-0.4,1.7l-0.4,0.1
		c0.1-0.9,0.3-3.2,0.3-4.6l0.4,0.1c0,0.2,0.1,0.8,0.1,1.2c0.3,0.1,3.5,0.2,5.9,0.2c2.7,0,5.8-0.1,6.1-0.2c0.1-0.2,0.2-0.8,0.3-1.1
		l0.5-0.1c-0.1,0.4-0.5,4.2-0.6,4.7l-0.4-0.1c0-0.7,0.1-1.5,0-1.9c-0.5-0.4-3-0.8-4.8-0.8c-0.1,0.5-0.1,3.2-0.1,4.5v0.8
		c0,1.6,0,4.7,0.1,6.2c0.3,0.1,2,0.2,2.4,0.3l0.1,0.4c-0.4,0-2.6-0.1-3.6-0.1c-0.8,0-3,0-3.6,0.1l0.1-0.4c0.4,0,1.9-0.2,2.4-0.3
		c0.1-1.4,0.1-4.6,0.1-6.2V74.9z"/>
	<path class="st0" d="M122.7,74.8c0-0.8,0-4.2-0.1-4.6c-0.5-0.1-1.5-0.2-1.9-0.3l0-0.4c0.3,0,2.3,0.1,3,0.1c0.6,0,2.8-0.1,4.2-0.1
		c2.2,0,4,0.3,5.2,0.8c2.2,1,3,2.8,3,4.4c0,3.9-3.1,7.7-10.1,7.7c-1,0-4.9,0-5.4,0l0.1-0.4c0.3,0,1.5-0.1,1.9-0.3
		c0.1-0.3,0.1-3.6,0.1-5.7V74.8z M124.8,76.4c0,1,0.1,4.4,0.1,5.1c0.8,0.3,1.5,0.3,2,0.3c3.5,0,6.9-2.1,6.9-6c0-1.6-0.5-3.1-2-4.2
		c-1.3-1-3.5-1.4-5.3-1.4c-0.4,0-1.2,0-1.6,0.1c-0.1,0.3-0.1,4.5-0.1,5.3V76.4z"/>
	<path class="st0" d="M139.9,75.3c0-1.7-0.1-4.6-0.1-5.1c-0.4-0.1-1.5-0.2-1.9-0.3l-0.1-0.4c0.4,0,1,0,1.7,0.1c0.6,0,1.2,0,1.6,0
		c0.6,0,4.9,0,5.4-0.1c0.1-0.2,0.1-0.5,0.1-0.9l0.4-0.1c-0.1,0.4-0.3,3.2-0.4,3.8l-0.4-0.1c0-0.1,0-1,0-1.3
		c-0.3-0.5-3.2-0.8-4.1-0.8c-0.1,0.3-0.1,3.8-0.1,4.9v0.4c1.6,0,3.4-0.1,3.8-0.3c0.1-0.3,0.1-0.5,0.2-0.8l0.4,0
		c-0.1,0.3-0.4,2.8-0.5,3.4l-0.3-0.1c0-0.4,0-0.9,0-1.2c-0.6-0.3-2-0.4-3.6-0.4v0.4c0,1.1,0.1,5.1,0.1,5.7c1.8,0,3.6-0.1,4.4-0.6
		c0.2-0.6,0.3-1.2,0.4-1.6l0.4-0.1c-0.1,0.5-0.5,3.3-0.6,4.2l-0.4-0.1c0-0.5,0-0.8,0-1.1c-0.5-0.1-4.6-0.2-5.8-0.2
		c-0.6,0-2.1,0-2.8,0.1l0.1-0.4c0.3,0,1.4-0.1,1.9-0.3c0.1-0.3,0.1-3.7,0.1-5.7V75.3z"/>
	<path class="st0" d="M154.4,74.9c0-1.4,0-4.1-0.1-4.5c-2.9,0-4.3,0.5-4.8,0.8c-0.1,0.4-0.3,1.1-0.4,1.7l-0.4,0.1
		c0.1-0.9,0.3-3.2,0.3-4.6l0.4,0.1c0,0.2,0.1,0.8,0.1,1.2c0.3,0.1,3.5,0.2,5.9,0.2c2.7,0,5.8-0.1,6.1-0.2c0.1-0.2,0.2-0.8,0.3-1.1
		l0.5-0.1c-0.1,0.4-0.5,4.2-0.6,4.7l-0.4-0.1c0-0.7,0.1-1.5,0-1.9c-0.5-0.4-3-0.8-4.8-0.8c-0.1,0.5-0.1,3.2-0.1,4.5v0.8
		c0,1.6,0,4.7,0.1,6.2c0.3,0.1,2,0.2,2.4,0.3l0.1,0.4c-0.4,0-2.6-0.1-3.6-0.1c-0.8,0-3,0-3.6,0.1l0.1-0.4c0.4,0,1.9-0.2,2.4-0.3
		c0.1-1.4,0.1-4.6,0.1-6.2V74.9z"/>
	<path class="st0" d="M165.3,75.3c0-1.7-0.1-4.6-0.1-5.1c-0.4-0.1-1.5-0.2-1.9-0.3l-0.1-0.4c0.4,0,1,0,1.7,0.1c0.6,0,1.2,0,1.6,0
		c0.6,0,4.9,0,5.4-0.1c0.1-0.2,0.1-0.5,0.1-0.9l0.4-0.1c-0.1,0.4-0.3,3.2-0.4,3.8l-0.4-0.1c0-0.1,0-1,0-1.3
		c-0.3-0.5-3.2-0.8-4.1-0.8c-0.1,0.3-0.1,3.8-0.1,4.9v0.4c1.6,0,3.4-0.1,3.8-0.3c0.1-0.3,0.1-0.5,0.2-0.8l0.4,0
		c-0.1,0.3-0.4,2.8-0.5,3.4l-0.3-0.1c0-0.4,0-0.9,0-1.2c-0.6-0.3-2-0.4-3.6-0.4v0.4c0,1.1,0.1,5.1,0.1,5.7c1.8,0,3.6-0.1,4.4-0.6
		c0.2-0.6,0.3-1.2,0.4-1.6l0.4-0.1c-0.1,0.5-0.5,3.3-0.6,4.2l-0.4-0.1c0-0.5,0-0.8,0-1.1c-0.5-0.1-4.6-0.2-5.8-0.2
		c-0.6,0-2.1,0-2.8,0.1l0.1-0.4c0.3,0,1.4-0.1,1.9-0.3c0.1-0.3,0.1-3.7,0.1-5.7V75.3z"/>
	<path class="st0" d="M187.3,73.6c0-0.3-0.1-1.2-0.1-1.5c-0.4-0.8-2.1-2.1-4.4-2.1c-3.3,0-5.5,2.4-5.5,5.3c0,3.6,3,6.6,6.8,6.6
		c1.4,0,3.1-0.2,4.4-1l-0.3,0.8c-0.4,0.3-2.3,1.1-5.2,1.1c-0.7,0-2.7-0.1-4.2-0.8c-2.4-1.2-3.8-3.3-3.8-5.6c0-2.5,1.3-4.4,2.9-5.5
		c1.9-1.3,3.6-1.5,5.5-1.5c1.6,0,3.3,0.3,3.8,0.5c0.1-0.2,0.3-1.4,0.4-1.6l0.4-0.1c-0.3,2-0.4,3.9-0.4,5.7L187.3,73.6z"/>
	<path class="st0" d="M194.5,74.9c0-1.4,0-4.1-0.1-4.5c-2.9,0-4.3,0.5-4.8,0.8c-0.1,0.4-0.3,1.1-0.4,1.7l-0.4,0.1
		c0.1-0.9,0.3-3.2,0.3-4.6l0.4,0.1c0,0.2,0.1,0.8,0.1,1.2c0.3,0.1,3.5,0.2,5.9,0.2c2.7,0,5.8-0.1,6.1-0.2c0.1-0.2,0.2-0.8,0.3-1.1
		l0.5-0.1c-0.1,0.4-0.5,4.2-0.6,4.7l-0.4-0.1c0-0.7,0.1-1.5,0-1.9c-0.5-0.4-3-0.8-4.8-0.8c-0.1,0.5-0.1,3.2-0.1,4.5v0.8
		c0,1.6,0,4.7,0.1,6.2c0.3,0.1,2,0.2,2.4,0.3l0.1,0.4c-0.4,0-2.6-0.1-3.6-0.1c-0.8,0-3,0-3.6,0.1l0.1-0.4c0.4,0,1.9-0.2,2.4-0.3
		c0.1-1.4,0.1-4.6,0.1-6.2V74.9z"/>
	<path class="st0" d="M204.9,80.7c-1.3-1.4-1.8-2.7-1.8-4.4c0-3.6,3-6.9,8.1-6.9c1.9,0,3.5,0.3,5.1,1.5c1.5,1.1,2.2,2.8,2.2,4.6
		c0,4.5-3.4,7.4-7.9,7.4C208.7,82.8,206.6,82.5,204.9,80.7z M216.2,76.7c0-3.9-2.7-6.7-5.8-6.7c-2.5,0-5.3,1.7-5.3,5.5
		c0,3.3,2.6,6.5,6.2,6.5C214.1,82,216.2,79.7,216.2,76.7z"/>
	<path class="st0" d="M222.1,74.7c0-0.7,0-4.2-0.1-4.5c-0.3-0.1-1.6-0.2-2-0.2l-0.1-0.4l4,0c1.7,0,3.9,0,5.2,0.5
		c1,0.4,1.6,1.1,1.6,2.1c0,1.2-1.2,2.7-2.6,3.5c0.2,0.5,3.2,5.3,5.1,7.3l-0.8,0.1c-1.3-0.6-6.2-6.2-6.5-6.6
		c-0.7,0.1-1.5,0.1-1.8,0.1v0.5c0,1.2,0,4,0.1,4.9c0.3,0.1,1.5,0.2,1.9,0.3l0.1,0.4c-0.5,0-2.3-0.1-3.2-0.1c-0.8,0-2.7,0-3.1,0.1
		l0.1-0.4c0.3,0,1.4-0.1,1.9-0.3c0.1-0.5,0.1-4.1,0.1-6.1V74.7z M224.2,76c0.7,0,1.5-0.1,2.2-0.3c0.8-0.3,2.1-1.1,2.1-3
		c0-1.2-1.1-2.6-4.2-2.6c-0.1,0.8-0.1,4-0.1,5.3V76z"/>
	<path class="st0" d="M44.8,96.9c0-0.6,0-4-0.1-4.7c-0.3-0.1-1.5-0.2-1.9-0.3l-0.1-0.4c0.3,0,2.1,0.1,3.2,0.1c1.1,0,2.7,0,3-0.1
		L48.9,92c-0.5,0-1.5,0.2-1.8,0.3c-0.1,0.5-0.1,2.7-0.1,4.2v0.9c0.5,0,6.9,0.1,7.6-0.1v-0.8c0-1.4,0-3.8-0.1-4.2
		c-0.3-0.1-1.3-0.2-1.8-0.3l-0.1-0.4c0.3,0,2,0.1,3.2,0.1c1.2,0,2.7,0,3.1-0.1L58.7,92c-0.4,0-1.3,0.2-1.9,0.3
		c-0.1,0.4-0.1,4.2-0.1,4.7v1.3c0,2.1,0,5.2,0.2,5.8c0.4,0.1,1.5,0.2,1.9,0.3l0.1,0.4c-0.3,0-2.2-0.1-3.1-0.1c-0.8,0-2.5,0-3.1,0.1
		l0.1-0.4c0.3,0,1.5-0.2,1.8-0.3c0.1-0.6,0.1-3,0.1-4.9V98c-0.9,0-7.4,0.4-7.6,0.4v0.6c0,1.9,0.1,4.2,0.1,4.9
		c0.5,0.1,1.4,0.2,1.8,0.3l0.1,0.4c-0.4,0-2.2-0.1-3-0.1c-1,0-2.7,0-3.2,0.1l0.1-0.4c0.4,0,1.6-0.2,1.9-0.3c0.1-0.9,0.1-4,0.1-5.3
		V96.9z"/>
	<path class="st0" d="M67.5,104.3c0.6-0.1,1.3-0.1,1.9-0.3c-0.3-1-1.6-4.9-1.9-5.4c-0.6,0-3.6,0.1-4.2,0.2c-0.1,0.3-1.1,3.7-1.3,5.1
		c0.5,0.1,1.1,0.2,1.6,0.3l0.1,0.4c-0.6,0-2.2-0.1-2.8-0.1c-0.5,0-1.7,0-2.1,0.1l0.1-0.4c0.5-0.1,1.1-0.1,1.6-0.3
		c0.7-1.2,4.3-11,4.6-11.7c-0.4-0.1-1-0.2-1.5-0.2l0-0.4c0.6,0,2.1,0.1,2.4,0.1c0.8,0,2.6,0,3.1-0.1L68.9,92c-0.5,0.1-1,0.1-1.4,0.2
		c0.2,0.8,1.2,3.7,1.9,5.6c0.5,1.4,1.7,4.5,2.5,6.1c0.5,0.1,1.1,0.2,1.6,0.3l0.1,0.4c-0.2,0-2.1-0.1-3.1-0.1c-0.5,0-2.6,0-3.1,0.1
		L67.5,104.3z M65.4,92.6L65.4,92.6c-0.6,1.6-1.8,4.8-2,5.4l3.9,0.1C66.9,96.8,65.7,93.6,65.4,92.6z"/>
	<path class="st0" d="M73.7,106.4c0-0.3,0.3-2.3,0.3-3c0-0.5,0.1-2.5,0.1-2.9l0.4,0.1c0,0.2,0.1,1.3,0.1,1.6c0.5,1.2,1.6,2,2.8,2
		c1.5,0,2.6-1,2.6-2.3c0-1.5-1.2-2.2-2.4-3c-1.8-1.2-3.2-2.2-3.2-4.3c0-1.4,1.1-3.2,3.8-3.2c1.1,0,2,0.2,2.5,0.3
		c0.1-0.4,0.2-1,0.3-1.5l0.4-0.1c-0.3,1.8-0.4,3.5-0.4,5L80.7,95c0-0.6,0-1.1-0.1-1.4C80.4,93,79.4,92,78.1,92c-1.6,0-2.2,1-2.2,1.8
		c0,1.2,1.3,1.8,2.6,2.7c1.5,1,3.1,2,3.1,4.3c0,2.6-2,4-4.5,4c-0.9,0-2-0.2-2.5-0.5c-0.1,0.3-0.3,1.2-0.4,1.9L73.7,106.4z"/>
	<path class="st0" d="M90.3,96.8c0-0.8,0-4.2-0.1-4.6c-0.5-0.1-1.5-0.2-1.9-0.3l0-0.4c0.3,0,2.3,0.1,3,0.1c0.6,0,2.8-0.1,4.2-0.1
		c2.2,0,4,0.3,5.2,0.8c2.2,1,3,2.8,3,4.4c0,3.9-3.1,7.7-10.1,7.7c-1,0-4.9,0-5.4,0l0.1-0.4c0.3,0,1.5-0.1,1.9-0.3
		c0.1-0.3,0.1-3.6,0.1-5.7V96.8z M92.4,98.4c0,1,0.1,4.4,0.1,5.1c0.8,0.3,1.5,0.3,2,0.3c3.5,0,6.9-2.1,6.9-6c0-1.6-0.5-3.1-2-4.2
		c-1.3-1-3.5-1.4-5.3-1.4c-0.4,0-1.2,0-1.6,0.1c-0.1,0.3-0.1,4.5-0.1,5.3V98.4z"/>
	<path class="st0" d="M107.5,97.4c0-1.7-0.1-4.6-0.1-5.1c-0.3-0.1-1.5-0.2-1.9-0.3l-0.1-0.4c0.4,0,1,0,1.7,0.1c0.6,0,1.2,0,1.6,0
		c0.6,0,4.9,0,5.4-0.1c0.1-0.2,0.1-0.5,0.1-0.9l0.4-0.1c-0.1,0.4-0.3,3.2-0.4,3.8l-0.4-0.1c0-0.1,0-1,0-1.3
		c-0.3-0.5-3.2-0.8-4.1-0.8c-0.1,0.3-0.1,3.8-0.1,4.9v0.4c1.6,0,3.4-0.1,3.8-0.3c0.1-0.3,0.1-0.5,0.2-0.8l0.4,0
		c-0.1,0.3-0.4,2.8-0.5,3.4l-0.3-0.1c0-0.4,0-0.9,0-1.2c-0.6-0.3-2-0.4-3.6-0.4v0.4c0,1.1,0.1,5.1,0.1,5.7c1.8,0,3.6-0.1,4.4-0.6
		c0.2-0.6,0.3-1.2,0.4-1.6l0.4-0.1c-0.1,0.5-0.5,3.3-0.6,4.2l-0.4-0.1c0-0.5,0-0.8,0-1.1c-0.5-0.1-4.6-0.2-5.8-0.2
		c-0.6,0-2.1,0-2.8,0.1l0.1-0.4c0.3,0,1.4-0.1,1.9-0.3c0.1-0.3,0.1-3.7,0.1-5.7V97.4z"/>
	<path class="st0" d="M122,97c0-1.4,0-4.1-0.1-4.5c-2.9,0-4.3,0.5-4.8,0.8c-0.1,0.4-0.3,1.1-0.4,1.7l-0.4,0.1
		c0.1-0.9,0.3-3.2,0.3-4.6l0.4,0.1c0,0.2,0.1,0.8,0.1,1.2c0.3,0.1,3.5,0.2,5.9,0.2c2.7,0,5.8-0.1,6.1-0.2c0.1-0.2,0.2-0.8,0.3-1.1
		l0.5-0.1c-0.1,0.4-0.5,4.2-0.6,4.7l-0.4-0.1c0-0.7,0.1-1.5,0-1.9c-0.5-0.4-3-0.8-4.8-0.8c-0.1,0.5-0.1,3.2-0.1,4.5v0.8
		c0,1.6,0,4.7,0.1,6.2c0.3,0.1,2,0.2,2.4,0.3l0.1,0.4c-0.4,0-2.6-0.1-3.6-0.1c-0.8,0-3,0-3.6,0.1l0.1-0.4c0.4,0,1.9-0.2,2.4-0.3
		c0.1-1.4,0.1-4.6,0.1-6.2V97z"/>
	<path class="st0" d="M132.9,97.4c0-1.7-0.1-4.6-0.1-5.1c-0.3-0.1-1.5-0.2-1.9-0.3l-0.1-0.4c0.4,0,1,0,1.7,0.1c0.6,0,1.2,0,1.6,0
		c0.6,0,4.9,0,5.4-0.1c0.1-0.2,0.1-0.5,0.1-0.9l0.4-0.1c-0.1,0.4-0.3,3.2-0.4,3.8l-0.4-0.1c0-0.1,0-1,0-1.3
		c-0.3-0.5-3.2-0.8-4.1-0.8c-0.1,0.3-0.1,3.8-0.1,4.9v0.4c1.6,0,3.4-0.1,3.8-0.3c0.1-0.3,0.1-0.5,0.2-0.8l0.4,0
		c-0.1,0.3-0.4,2.8-0.5,3.4l-0.4-0.1c0-0.4,0-0.9,0-1.2c-0.6-0.3-2-0.4-3.6-0.4v0.4c0,1.1,0.1,5.1,0.1,5.7c1.8,0,3.6-0.1,4.4-0.6
		c0.2-0.6,0.3-1.2,0.4-1.6l0.4-0.1c-0.1,0.5-0.5,3.3-0.6,4.2l-0.4-0.1c0-0.5,0-0.8,0-1.1c-0.5-0.1-4.6-0.2-5.8-0.2
		c-0.6,0-2.1,0-2.8,0.1l0.1-0.4c0.3,0,1.4-0.1,1.9-0.3c0.1-0.3,0.1-3.7,0.1-5.7V97.4z"/>
	<path class="st0" d="M144.6,96.8c0-0.7,0-4.2-0.1-4.5c-0.3-0.1-1.6-0.2-2-0.2l-0.1-0.4l4,0c1.7,0,3.9,0,5.2,0.5
		c1,0.4,1.6,1.1,1.6,2.1c0,1.2-1.2,2.7-2.6,3.5c0.2,0.5,3.2,5.3,5.1,7.3l-0.8,0.1c-1.3-0.6-6.2-6.2-6.5-6.6
		c-0.7,0.1-1.5,0.1-1.8,0.1v0.5c0,1.2,0,4,0.1,4.9c0.3,0.1,1.5,0.2,1.9,0.3l0.1,0.4c-0.5,0-2.3-0.1-3.2-0.1c-0.8,0-2.7,0-3.1,0.1
		l0.1-0.4c0.3,0,1.4-0.1,1.9-0.3c0.1-0.5,0.1-4.1,0.1-6.1V96.8z M146.7,98.1c0.7,0,1.5-0.1,2.2-0.3c0.8-0.3,2.1-1.1,2.1-3
		c0-1.2-1.1-2.6-4.2-2.6c-0.1,0.8-0.1,4-0.1,5.3V98.1z"/>
	<path class="st0" d="M168.8,104.3c0.3,0,1.7-0.2,2-0.2c0-0.7-1.6-9-1.9-10.3h-0.1c-0.5,1.1-4.1,9.9-4.7,11c-0.5-1.1-4-10.3-4.2-11
		H160c-0.5,2.8-1.6,7.9-1.5,10.3c0.3,0.1,1.4,0.2,1.6,0.3l0.1,0.4c-0.3,0-2.4-0.1-2.7-0.1c-0.5,0-1.4,0-2,0.1l0.1-0.4
		c0.3-0.1,0.9-0.1,1.3-0.2c0.4-1.2,2.4-10.2,2.7-11.7c-0.5-0.1-1.6-0.2-1.8-0.3l-0.1-0.4c0.2,0,1.7,0.1,2.6,0.1c0.8,0,2.2,0,2.8-0.1
		l-0.1,0.4c-0.5,0.1-1,0.2-1.4,0.3c0.5,1.7,2.8,7.7,3.3,9.1c0.5-1,3.7-8.7,3.8-9.1c-0.4-0.1-0.9-0.2-1.3-0.3l-0.1-0.4
		c0.6,0,1.8,0.1,2.5,0.1c0.6,0,2.1,0,2.6-0.1l-0.1,0.4c-0.3,0-1.2,0.2-1.5,0.3c0.3,2.1,2.1,10.6,2.4,11.7c0.5,0.1,1.2,0.2,1.5,0.3
		l0.1,0.4c-0.6,0-1.7-0.1-2.6-0.1c-0.8,0-2.9,0-3.4,0.1L168.8,104.3z"/>
	<path class="st0" d="M180,98.2c0,2.4,0,5.5,0.1,5.8c0.5,0.1,1.6,0.2,1.9,0.3l0.1,0.4c-0.4,0-2.3-0.1-3.5-0.1c-0.6,0-2.3,0-2.9,0.1
		l0.1-0.4c0.3,0,1.6-0.2,1.9-0.3c0.1-0.8,0.1-4.2,0.1-6v-1.1c0-0.6,0-4-0.1-4.7c-0.4-0.1-1.6-0.2-1.9-0.3l-0.1-0.4
		c0.4,0,2,0.1,3.5,0.1c0.9,0,2.5,0,2.8-0.1L182,92c-0.4,0-1.3,0.2-1.9,0.3c-0.1,0.4-0.1,2.5-0.1,4.8V98.2z"/>
	<path class="st0" d="M183.7,91.7c1,0,2.8-0.1,4.2-0.1c0.4,0.6,4.1,5.3,4.4,5.6c0.5,0.5,3.4,4.1,4,4.6c0-2,0-8.5-0.4-9.4
		c-0.4-0.1-1.3-0.2-1.9-0.3l-0.1-0.4c0.3,0,2.3,0.1,2.7,0.1c0.4,0,1.9,0,2.3-0.1L199,92c-0.2,0-0.9,0.2-1.4,0.3
		c-0.2,0.7-0.3,3.3-0.3,3.9c-0.1,0.9-0.2,8.6-0.3,9.3c-0.6-0.5-5.6-6.5-6.1-6.9c-0.3-0.3-3.8-4.5-4.4-5.2c-0.1,0.4,0.2,10,0.4,10.7
		c0.3,0.1,1.7,0.2,2,0.3l0.1,0.4c-0.3,0-2.2-0.1-2.7-0.1c-0.5,0-2,0-2.5,0.1l0.1-0.4c0.5-0.1,1.1-0.1,1.5-0.3
		c0.3-0.8,0.5-11.1,0.5-11.7c-0.4-0.1-1.3-0.2-2-0.2L183.7,91.7z"/>
	<path class="st0" d="M202.7,97.4c0-1.7-0.1-4.6-0.1-5.1c-0.3-0.1-1.5-0.2-1.9-0.3l-0.1-0.4c0.4,0,1,0,1.7,0.1c0.6,0,1.2,0,1.6,0
		c0.6,0,4.9,0,5.4-0.1c0.1-0.2,0.1-0.5,0.1-0.9l0.4-0.1c-0.1,0.4-0.3,3.2-0.4,3.8l-0.4-0.1c0-0.1,0-1,0-1.3
		c-0.3-0.5-3.2-0.8-4.1-0.8c-0.1,0.3-0.1,3.8-0.1,4.9v0.4c1.6,0,3.4-0.1,3.8-0.3c0.1-0.3,0.1-0.5,0.2-0.8l0.4,0
		c-0.1,0.3-0.4,2.8-0.5,3.4l-0.4-0.1c0-0.4,0-0.9,0-1.2c-0.6-0.3-2-0.4-3.6-0.4v0.4c0,1.1,0.1,5.1,0.1,5.7c1.8,0,3.6-0.1,4.4-0.6
		c0.2-0.6,0.3-1.2,0.4-1.6l0.4-0.1c-0.1,0.5-0.5,3.3-0.6,4.2l-0.4-0.1c0-0.5,0-0.8,0-1.1c-0.5-0.1-4.6-0.2-5.8-0.2
		c-0.6,0-2.1,0-2.8,0.1l0.1-0.4c0.3,0,1.4-0.1,1.9-0.3c0.1-0.3,0.1-3.7,0.1-5.7V97.4z"/>
	<path class="st0" d="M214.4,96.8c0-0.8,0-4.2-0.1-4.6c-0.5-0.1-1.5-0.2-1.9-0.3l0-0.4c0.3,0,2.3,0.1,3,0.1c0.6,0,2.8-0.1,4.2-0.1
		c2.1,0,4,0.3,5.2,0.8c2.2,1,3,2.8,3,4.4c0,3.9-3.1,7.7-10.1,7.7c-1,0-4.9,0-5.4,0l0.1-0.4c0.3,0,1.5-0.1,1.9-0.3
		c0.1-0.3,0.1-3.6,0.1-5.7V96.8z M216.5,98.4c0,1,0.1,4.4,0.1,5.1c0.8,0.3,1.5,0.3,2,0.3c3.5,0,6.9-2.1,6.9-6c0-1.6-0.5-3.1-2-4.2
		c-1.3-1-3.5-1.4-5.3-1.4c-0.4,0-1.2,0-1.6,0.1c-0.1,0.3-0.1,4.5-0.1,5.3V98.4z"/>
	<path class="st0" d="M44.7,119c0-1.4,0-4.1-0.1-4.5c-2.9,0-4.3,0.5-4.8,0.8c-0.1,0.4-0.3,1.1-0.4,1.7l-0.4,0.1
		c0.1-0.9,0.3-3.2,0.3-4.6l0.4,0.1c0,0.2,0.1,0.8,0.1,1.2c0.3,0.1,3.5,0.2,5.9,0.2c2.7,0,5.8-0.1,6.1-0.2c0.1-0.2,0.2-0.8,0.3-1.1
		l0.5-0.1c-0.1,0.4-0.5,4.2-0.6,4.7l-0.4-0.1c0-0.7,0.1-1.5,0-1.9c-0.5-0.4-3-0.8-4.8-0.8c-0.1,0.5-0.1,3.2-0.1,4.5v0.8
		c0,1.6,0,4.7,0.1,6.2c0.3,0.1,2,0.2,2.4,0.3l0.1,0.4c-0.4,0-2.6-0.1-3.6-0.1c-0.8,0-3,0-3.6,0.1l0.1-0.4c0.4,0,1.9-0.2,2.4-0.3
		c0.1-1.4,0.1-4.6,0.1-6.2V119z"/>
	<path class="st0" d="M55.6,119c0-0.6,0-4-0.1-4.7c-0.3-0.1-1.5-0.2-1.9-0.3l-0.1-0.4c0.3,0,2.1,0.1,3.2,0.1c1.1,0,2.7,0,3-0.1
		l-0.1,0.4c-0.5,0-1.5,0.2-1.8,0.3c-0.1,0.5-0.1,2.7-0.1,4.2v0.9c0.5,0,6.9,0.1,7.6-0.1v-0.8c0-1.4,0-3.8-0.1-4.2
		c-0.3-0.1-1.3-0.2-1.8-0.3l-0.1-0.4c0.3,0,2,0.1,3.2,0.1c1.2,0,2.7,0,3.1-0.1l-0.1,0.4c-0.4,0-1.3,0.2-1.9,0.3
		c-0.1,0.4-0.1,4.2-0.1,4.7v1.3c0,2.1,0,5.2,0.2,5.8c0.4,0.1,1.5,0.2,1.9,0.3l0.1,0.4c-0.3,0-2.2-0.1-3.1-0.1c-0.8,0-2.5,0-3.1,0.1
		l0.1-0.4c0.3,0,1.5-0.2,1.8-0.3c0.1-0.6,0.1-3,0.1-4.9v-1.1c-0.9,0-7.4,0.4-7.6,0.4v0.6c0,1.9,0.1,4.2,0.1,4.9
		c0.5,0.1,1.4,0.2,1.8,0.3l0.1,0.4c-0.4,0-2.2-0.1-3-0.1c-1,0-2.7,0-3.2,0.1l0.1-0.4c0.4,0,1.6-0.2,1.9-0.3c0.1-0.9,0.1-4,0.1-5.3
		V119z"/>
	<path class="st0" d="M78.3,126.3c0.6-0.1,1.3-0.1,1.9-0.3c-0.3-1-1.6-4.9-1.9-5.4c-0.6,0-3.6,0.1-4.2,0.2c-0.1,0.3-1.1,3.7-1.3,5.1
		c0.5,0.1,1.1,0.2,1.6,0.3l0.1,0.4c-0.6,0-2.2-0.1-2.8-0.1c-0.5,0-1.7,0-2.1,0.1l0.1-0.4c0.5-0.1,1.1-0.1,1.6-0.3
		c0.7-1.2,4.3-11,4.6-11.7c-0.4-0.1-1-0.2-1.5-0.2l0-0.4c0.6,0,2.1,0.1,2.4,0.1c0.8,0,2.6,0,3.1-0.1l-0.1,0.4
		c-0.5,0.1-1,0.1-1.4,0.2c0.2,0.8,1.2,3.7,1.9,5.6c0.5,1.4,1.7,4.5,2.5,6.1c0.5,0.1,1.1,0.2,1.6,0.3l0.1,0.4c-0.2,0-2.1-0.1-3.1-0.1
		c-0.5,0-2.6,0-3.1,0.1L78.3,126.3z M76.2,114.6L76.2,114.6c-0.6,1.6-1.8,4.8-2,5.4l3.9,0.1C77.7,118.9,76.5,115.6,76.2,114.6z"/>
	<path class="st0" d="M88.9,119c0-1.4,0-4.1-0.1-4.5c-2.9,0-4.3,0.5-4.8,0.8c-0.1,0.4-0.3,1.1-0.4,1.7l-0.4,0.1
		c0.1-0.9,0.3-3.2,0.3-4.6l0.4,0.1c0,0.2,0.1,0.8,0.1,1.2c0.3,0.1,3.5,0.2,5.9,0.2c2.7,0,5.8-0.1,6.1-0.2c0.1-0.2,0.2-0.8,0.3-1.1
		l0.5-0.1c-0.1,0.4-0.5,4.2-0.6,4.7l-0.4-0.1c0-0.7,0.1-1.5,0-1.9c-0.5-0.4-3-0.8-4.8-0.8C91,115,91,117.7,91,119v0.8
		c0,1.6,0,4.7,0.1,6.2c0.3,0.1,2,0.2,2.4,0.3l0.1,0.4c-0.4,0-2.6-0.1-3.6-0.1c-0.8,0-3,0-3.6,0.1l0.1-0.4c0.4,0,1.9-0.2,2.4-0.3
		c0.1-1.4,0.1-4.6,0.1-6.2V119z"/>
	<path class="st0" d="M107.2,119c0-1.4,0-4.1-0.1-4.5c-2.9,0-4.3,0.5-4.8,0.8c-0.1,0.4-0.3,1.1-0.4,1.7l-0.4,0.1
		c0.1-0.9,0.3-3.2,0.3-4.6l0.4,0.1c0,0.2,0.1,0.8,0.1,1.2c0.3,0.1,3.5,0.2,5.9,0.2c2.7,0,5.8-0.1,6.1-0.2c0.1-0.2,0.2-0.8,0.3-1.1
		l0.5-0.1c-0.1,0.4-0.5,4.2-0.6,4.7l-0.4-0.1c0-0.7,0.1-1.5,0-1.9c-0.5-0.4-3-0.8-4.8-0.8c-0.1,0.5-0.1,3.2-0.1,4.5v0.8
		c0,1.6,0,4.7,0.1,6.2c0.3,0.1,2,0.2,2.4,0.3l0.1,0.4c-0.4,0-2.6-0.1-3.6-0.1c-0.8,0-3,0-3.6,0.1l0.1-0.4c0.4,0,1.9-0.2,2.4-0.3
		c0.1-1.4,0.1-4.6,0.1-6.2V119z"/>
	<path class="st0" d="M118.1,119c0-0.6,0-4-0.1-4.7c-0.3-0.1-1.5-0.2-1.9-0.3l-0.1-0.4c0.3,0,2.1,0.1,3.2,0.1c1.1,0,2.7,0,3-0.1
		l-0.1,0.4c-0.5,0-1.5,0.2-1.8,0.3c-0.1,0.5-0.1,2.7-0.1,4.2v0.9c0.5,0,6.9,0.1,7.6-0.1v-0.8c0-1.4,0-3.8-0.1-4.2
		c-0.3-0.1-1.3-0.2-1.8-0.3l-0.1-0.4c0.3,0,2,0.1,3.2,0.1c1.2,0,2.7,0,3.1-0.1l-0.1,0.4c-0.4,0-1.3,0.2-1.9,0.3
		c-0.1,0.4-0.1,4.2-0.1,4.7v1.3c0,2.1,0,5.2,0.2,5.8c0.4,0.1,1.5,0.2,1.9,0.3l0.1,0.4c-0.3,0-2.2-0.1-3.1-0.1c-0.8,0-2.5,0-3.1,0.1
		l0.1-0.4c0.3,0,1.5-0.2,1.8-0.3c0.1-0.6,0.1-3,0.1-4.9v-1.1c-0.9,0-7.4,0.4-7.6,0.4v0.6c0,1.9,0.1,4.2,0.1,4.9
		c0.5,0.1,1.4,0.2,1.8,0.3l0.1,0.4c-0.4,0-2.2-0.1-3-0.1c-1,0-2.7,0-3.2,0.1l0.1-0.4c0.4,0,1.6-0.2,1.9-0.3c0.1-0.9,0.1-4,0.1-5.3
		V119z"/>
	<path class="st0" d="M138,120.2c0,2.4,0,5.5,0.1,5.8c0.5,0.1,1.6,0.2,1.9,0.3l0.1,0.4c-0.4,0-2.3-0.1-3.5-0.1c-0.6,0-2.3,0-2.9,0.1
		l0.1-0.4c0.3,0,1.6-0.2,1.9-0.3c0.1-0.8,0.1-4.2,0.1-6V119c0-0.6,0-4-0.1-4.7c-0.4-0.1-1.6-0.2-1.9-0.3l-0.1-0.4
		c0.3,0,2,0.1,3.5,0.1c0.9,0,2.5,0,2.8-0.1l-0.1,0.4c-0.4,0-1.3,0.2-1.9,0.3c-0.1,0.4-0.1,2.5-0.1,4.8V120.2z"/>
	<path class="st0" d="M142.2,128.5c0-0.3,0.3-2.3,0.3-3c0-0.5,0.1-2.5,0.1-2.9l0.4,0.1c0,0.2,0.1,1.3,0.1,1.6c0.5,1.2,1.6,2,2.8,2
		c1.5,0,2.6-1,2.6-2.3c0-1.5-1.2-2.2-2.4-3c-1.8-1.2-3.2-2.2-3.2-4.3c0-1.4,1.1-3.2,3.8-3.2c1.1,0,2,0.2,2.5,0.3
		c0.1-0.4,0.2-1,0.3-1.5l0.4-0.1c-0.3,1.8-0.4,3.5-0.4,5l-0.4-0.2c0-0.6,0-1.1-0.1-1.4c-0.2-0.7-1.2-1.7-2.4-1.7
		c-1.6,0-2.2,1-2.2,1.8c0,1.2,1.3,1.8,2.6,2.7c1.5,1,3.1,2,3.1,4.3c0,2.6-2,4-4.5,4c-0.9,0-2-0.2-2.5-0.5c-0.1,0.3-0.3,1.2-0.4,1.9
		L142.2,128.5z"/>
	<path class="st0" d="M160.9,120.2c0,2.4,0,5.5,0.1,5.8c0.5,0.1,1.6,0.2,1.9,0.3l0.1,0.4c-0.4,0-2.3-0.1-3.5-0.1
		c-0.6,0-2.3,0-2.9,0.1l0.1-0.4c0.3,0,1.6-0.2,1.9-0.3c0.1-0.8,0.1-4.2,0.1-6V119c0-0.6,0-4-0.1-4.7c-0.4-0.1-1.6-0.2-1.9-0.3
		l-0.1-0.4c0.3,0,2,0.1,3.5,0.1c0.9,0,2.5,0,2.8-0.1l-0.1,0.4c-0.4,0-1.3,0.2-1.9,0.3c-0.1,0.4-0.1,2.5-0.1,4.8V120.2z"/>
	<path class="st0" d="M169.7,119c0-1.4,0-4.1-0.1-4.5c-2.9,0-4.3,0.5-4.8,0.8c-0.1,0.4-0.3,1.1-0.4,1.7l-0.4,0.1
		c0.1-0.9,0.3-3.2,0.3-4.6l0.4,0.1c0,0.2,0.1,0.8,0.1,1.2c0.3,0.1,3.5,0.2,5.9,0.2c2.7,0,5.8-0.1,6.1-0.2c0.1-0.2,0.2-0.8,0.3-1.1
		l0.5-0.1c-0.1,0.4-0.5,4.2-0.6,4.7l-0.4-0.1c0-0.7,0.1-1.5,0-1.9c-0.5-0.4-3-0.8-4.8-0.8c-0.1,0.5-0.1,3.2-0.1,4.5v0.8
		c0,1.6,0,4.7,0.1,6.2c0.3,0.1,2,0.2,2.4,0.3l0.1,0.4c-0.4,0-2.6-0.1-3.6-0.1c-0.8,0-3,0-3.6,0.1l0.1-0.4c0.4,0,1.9-0.2,2.4-0.3
		c0.1-1.4,0.1-4.6,0.1-6.2V119z"/>
	<path class="st0" d="M180.6,119.5c0-1.7-0.1-4.6-0.1-5.1c-0.4-0.1-1.5-0.2-1.9-0.3l-0.1-0.4c0.4,0,1,0,1.7,0.1c0.6,0,1.2,0,1.6,0
		c0.6,0,4.9,0,5.4-0.1c0.1-0.2,0.1-0.5,0.1-0.9l0.4-0.1c-0.1,0.4-0.3,3.2-0.4,3.8l-0.4-0.1c0-0.1,0-1,0-1.3
		c-0.3-0.5-3.2-0.8-4.1-0.8c-0.1,0.3-0.1,3.8-0.1,4.9v0.4c1.6,0,3.4-0.1,3.8-0.3c0.1-0.3,0.1-0.5,0.2-0.8l0.4,0
		c-0.1,0.3-0.4,2.8-0.5,3.4l-0.3-0.1c0-0.4,0-0.9,0-1.2c-0.6-0.3-2-0.4-3.6-0.4v0.4c0,1.1,0.1,5.1,0.1,5.7c1.8,0,3.6-0.1,4.4-0.6
		c0.2-0.6,0.3-1.2,0.4-1.6l0.4-0.1c-0.1,0.5-0.5,3.3-0.6,4.2l-0.4-0.1c0-0.5,0-0.8,0-1.1c-0.5-0.1-4.6-0.2-5.8-0.2
		c-0.6,0-2.1,0-2.8,0.1l0.1-0.4c0.3,0,1.4-0.1,1.9-0.3c0.1-0.3,0.1-3.7,0.1-5.7V119.5z"/>
	<path class="st0" d="M202.7,126.3c0.3,0,1.7-0.2,2-0.2c0-0.7-1.6-9-1.9-10.3h-0.1c-0.5,1.1-4.1,9.9-4.7,11c-0.5-1.1-4-10.3-4.2-11
		h-0.1c-0.5,2.8-1.6,7.9-1.5,10.3c0.3,0.1,1.4,0.2,1.6,0.3l0.1,0.4c-0.3,0-2.4-0.1-2.7-0.1c-0.5,0-1.4,0-2,0.1l0.1-0.4
		c0.3-0.1,0.9-0.1,1.3-0.2c0.4-1.2,2.4-10.2,2.7-11.7c-0.5-0.1-1.6-0.2-1.8-0.3l-0.1-0.4c0.2,0,1.7,0.1,2.6,0.1c0.8,0,2.2,0,2.8-0.1
		l-0.1,0.4c-0.5,0.1-1,0.2-1.4,0.3c0.5,1.7,2.8,7.7,3.3,9.1c0.5-1,3.7-8.7,3.8-9.1c-0.4-0.1-0.9-0.2-1.3-0.3l-0.1-0.4
		c0.6,0,1.8,0.1,2.5,0.1c0.6,0,2.1,0,2.6-0.1l-0.1,0.4c-0.3,0-1.2,0.2-1.5,0.3c0.3,2.1,2.1,10.6,2.4,11.7c0.5,0.1,1.2,0.2,1.5,0.3
		l0.1,0.4c-0.6,0-1.7-0.1-2.6-0.1c-0.8,0-2.9,0-3.4,0.1L202.7,126.3z"/>
	<path class="st0" d="M218.5,120.2c0,2.4,0,5.5,0.1,5.8c0.5,0.1,1.6,0.2,1.9,0.3l0.1,0.4c-0.4,0-2.3-0.1-3.5-0.1
		c-0.6,0-2.3,0-2.9,0.1l0.1-0.4c0.3,0,1.6-0.2,1.9-0.3c0.1-0.8,0.1-4.2,0.1-6V119c0-0.6,0-4-0.1-4.7c-0.4-0.1-1.6-0.2-1.9-0.3
		l-0.1-0.4c0.3,0,2,0.1,3.5,0.1c0.9,0,2.5,0,2.8-0.1l-0.1,0.4c-0.4,0-1.3,0.2-1.9,0.3c-0.1,0.4-0.1,2.5-0.1,4.8V120.2z"/>
	<path class="st0" d="M222.6,128.5c0-0.3,0.3-2.3,0.3-3c0-0.5,0.1-2.5,0.1-2.9l0.4,0.1c0,0.2,0.1,1.3,0.1,1.6c0.5,1.2,1.6,2,2.8,2
		c1.5,0,2.6-1,2.6-2.3c0-1.5-1.2-2.2-2.4-3c-1.8-1.2-3.2-2.2-3.2-4.3c0-1.4,1.1-3.2,3.8-3.2c1.1,0,2,0.2,2.5,0.3
		c0.1-0.4,0.2-1,0.3-1.5l0.4-0.1c-0.3,1.8-0.4,3.5-0.4,5l-0.4-0.2c0-0.6,0-1.1-0.1-1.4c-0.2-0.7-1.2-1.7-2.4-1.7
		c-1.6,0-2.2,1-2.2,1.8c0,1.2,1.3,1.8,2.6,2.7c1.5,1,3.1,2,3.1,4.3c0,2.6-2,4-4.5,4c-0.9,0-2-0.2-2.5-0.5c-0.1,0.3-0.3,1.2-0.4,1.9
		L222.6,128.5z"/>
	<path class="st0" d="M30.7,137.4c1.2,0,3.2-0.1,4.9-0.1c0.5,0.7,4.8,6.1,5.1,6.5c0.6,0.6,4,4.7,4.7,5.3c0-2.4,0-9.9-0.5-11
		c-0.4-0.1-1.6-0.3-2.2-0.3l-0.1-0.5c0.4,0,2.7,0.1,3.2,0.1c0.5,0,2.3,0,2.7-0.1l-0.1,0.5c-0.3,0-1.1,0.2-1.6,0.3
		c-0.3,0.8-0.4,3.9-0.4,4.5c-0.1,1-0.2,10-0.4,10.9c-0.6-0.6-6.6-7.5-7.1-8.1c-0.3-0.3-4.4-5.3-5.1-6.1c-0.1,0.4,0.2,11.7,0.5,12.5
		c0.3,0.1,1.9,0.3,2.3,0.3l0.1,0.5c-0.4,0-2.6-0.1-3.2-0.1c-0.6,0-2.3,0-2.9,0.1l0.1-0.5c0.6-0.1,1.3-0.1,1.8-0.3
		c0.4-0.9,0.6-12.9,0.6-13.6c-0.5-0.1-1.5-0.2-2.4-0.3L30.7,137.4z"/>
	<path class="st0" d="M52.5,150.3c-1.6-1.6-2.1-3.2-2.1-5.2c0-4.2,3.5-8.1,9.4-8.1c2.3,0,4.1,0.4,5.9,1.7c1.7,1.2,2.6,3.3,2.6,5.3
		c0,5.3-4,8.6-9.3,8.6C57,152.7,54.5,152.4,52.5,150.3z M65.8,145.6c0-4.5-3.2-7.8-6.7-7.8c-2.9,0-6.2,2-6.2,6.4
		c0,3.8,3.1,7.6,7.3,7.6C63.3,151.8,65.8,149.1,65.8,145.6z"/>
	<path class="st0" d="M76.4,143.5c0-1.6,0-4.8-0.1-5.3c-3.4,0-5,0.5-5.6,0.9c-0.2,0.5-0.3,1.3-0.4,2l-0.5,0.1c0.1-1,0.3-3.7,0.3-5.4
		l0.5,0.1c0,0.3,0.1,0.9,0.1,1.4c0.3,0.1,4,0.2,6.9,0.2c3.1,0,6.8-0.1,7.2-0.2c0.1-0.3,0.2-0.9,0.3-1.3l0.5-0.1
		c-0.1,0.5-0.6,4.9-0.7,5.5l-0.5-0.1c0-0.9,0.1-1.7,0-2.2c-0.5-0.4-3.5-0.9-5.6-0.9c-0.1,0.6-0.1,3.7-0.1,5.3v1c0,1.9,0,5.5,0.1,7.2
		c0.4,0.1,2.4,0.3,2.8,0.3l0.1,0.5c-0.5,0-3-0.1-4.2-0.1c-1,0-3.5,0-4.2,0.1l0.1-0.5c0.5,0,2.2-0.2,2.7-0.3c0.1-1.7,0.1-5.4,0.1-7.2
		V143.5z"/>
	<path class="st0" d="M100.1,152c0.8-0.1,1.5-0.1,2.2-0.3c-0.4-1.1-1.9-5.7-2.3-6.3c-0.7,0-4.2,0.1-5,0.3c-0.1,0.3-1.3,4.4-1.5,6
		c0.5,0.1,1.2,0.2,1.8,0.3l0.1,0.5c-0.7,0-2.6-0.1-3.2-0.1c-0.6,0-2,0-2.5,0.1l0.1-0.5c0.6-0.1,1.3-0.2,1.8-0.3
		c0.8-1.4,5-12.9,5.3-13.7c-0.5-0.1-1.2-0.2-1.7-0.3l0-0.5c0.6,0,2.4,0.1,2.8,0.1c0.9,0,3,0,3.7-0.1l-0.1,0.5
		c-0.6,0.1-1.1,0.2-1.6,0.3c0.3,0.9,1.4,4.3,2.3,6.6c0.6,1.7,1.9,5.3,2.9,7.1c0.6,0.1,1.2,0.2,1.9,0.3l0.1,0.5
		c-0.3,0-2.4-0.1-3.6-0.1c-0.6,0-3,0-3.6,0.1L100.1,152z M97.7,138.4L97.7,138.4c-0.7,1.9-2.1,5.6-2.3,6.3l4.5,0.1
		C99.4,143.4,98.1,139.6,97.7,138.4z"/>
	<path class="st0" d="M115.1,143.5c0-0.7,0-4.7-0.1-5.4c-0.4-0.1-1.7-0.3-2.3-0.3l-0.1-0.5c0.4,0,2.4,0.1,3.8,0.1
		c1.3,0,3.2,0,3.5-0.1l-0.1,0.5c-0.6,0-1.7,0.2-2.1,0.3c-0.1,0.6-0.2,3.1-0.2,5v1.1c0.5,0,8,0.1,8.9-0.1v-1c0-1.7,0-4.4-0.1-5
		c-0.4-0.1-1.5-0.3-2.1-0.3l-0.1-0.5c0.4,0,2.4,0.1,3.7,0.1c1.4,0,3.2,0,3.6-0.1l-0.1,0.5c-0.4,0-1.6,0.2-2.2,0.3
		c-0.1,0.4-0.1,4.8-0.1,5.4v1.5c0,2.5,0,6,0.2,6.8c0.4,0.1,1.7,0.3,2.2,0.3l0.1,0.5c-0.4,0-2.6-0.1-3.6-0.1c-0.9,0-2.9,0-3.7,0.1
		l0.1-0.5c0.3,0,1.7-0.2,2.1-0.3c0.1-0.7,0.1-3.5,0.1-5.7v-1.2c-1,0-8.6,0.4-8.9,0.5v0.8c0,2.2,0.1,4.9,0.2,5.7
		c0.6,0.1,1.7,0.3,2.1,0.3l0.1,0.5c-0.5,0-2.6-0.1-3.5-0.1c-1.1,0-3.1,0-3.8,0.1l0.1-0.5c0.5,0,1.8-0.2,2.2-0.3
		c0.1-1,0.1-4.6,0.1-6.2V143.5z"/>
	<path class="st0" d="M135.3,150.3c-1.6-1.6-2.1-3.2-2.1-5.2c0-4.2,3.5-8.1,9.4-8.1c2.3,0,4.1,0.4,5.9,1.7c1.7,1.2,2.6,3.3,2.6,5.3
		c0,5.3-4,8.6-9.3,8.6C139.8,152.7,137.3,152.4,135.3,150.3z M148.6,145.6c0-4.5-3.2-7.8-6.7-7.8c-2.9,0-6.2,2-6.2,6.4
		c0,3.8,3.1,7.6,7.3,7.6C146.1,151.8,148.6,149.1,148.6,145.6z"/>
	<path class="st0" d="M155.5,143.3c0-0.8,0-4.9-0.1-5.3c-0.4-0.1-1.8-0.2-2.3-0.3l-0.1-0.5l4.6,0c2,0,4.6,0,6,0.6
		c1.1,0.5,1.8,1.3,1.8,2.4c0,1.4-1.4,3.1-3,4.1c0.2,0.5,3.7,6.2,5.9,8.5l-0.9,0.1c-1.5-0.7-7.2-7.3-7.5-7.7
		c-0.8,0.1-1.7,0.1-2.1,0.1v0.6c0,1.4,0,4.7,0.1,5.7c0.4,0.1,1.8,0.3,2.3,0.3l0.1,0.5c-0.5,0-2.7-0.1-3.7-0.1c-0.9,0-3.1,0-3.6,0.1
		l0.1-0.5c0.3,0,1.7-0.1,2.3-0.3c0.1-0.6,0.1-4.8,0.1-7.1V143.3z M157.9,144.8c0.8,0,1.7-0.1,2.6-0.4c0.9-0.3,2.4-1.3,2.4-3.5
		c0-1.4-1.2-3-5-3c-0.1,0.9-0.1,4.7-0.1,6.2V144.8z"/>
	<path class="st0" d="M183.5,142c0-0.4-0.1-1.4-0.1-1.8c-0.4-0.9-2.4-2.5-5.2-2.5c-3.9,0-6.4,2.8-6.4,6.2c0,4.2,3.5,7.7,8,7.7
		c1.6,0,3.6-0.3,5.1-1.2l-0.3,0.9c-0.5,0.4-2.7,1.3-6,1.3c-0.8,0-3.1-0.1-4.9-0.9c-2.8-1.4-4.4-3.8-4.4-6.6c0-3,1.5-5.1,3.4-6.4
		c2.2-1.5,4.2-1.8,6.4-1.8c1.9,0,3.9,0.4,4.5,0.6c0.1-0.3,0.4-1.7,0.5-1.9l0.5-0.1c-0.3,2.4-0.5,4.6-0.5,6.6L183.5,142z"/>
	<path class="st0" d="M188.9,143.3c0-0.8,0-4.9-0.1-5.3c-0.4-0.1-1.8-0.2-2.3-0.3l-0.1-0.5l4.6,0c2,0,4.6,0,6,0.6
		c1.1,0.5,1.8,1.3,1.8,2.4c0,1.4-1.4,3.1-3,4.1c0.2,0.5,3.7,6.2,5.9,8.5l-0.9,0.1c-1.5-0.7-7.2-7.3-7.5-7.7
		c-0.8,0.1-1.7,0.1-2.1,0.1v0.6c0,1.4,0,4.7,0.1,5.7c0.4,0.1,1.8,0.3,2.3,0.3l0.1,0.5c-0.5,0-2.7-0.1-3.7-0.1c-0.9,0-3.1,0-3.6,0.1
		l0.1-0.5c0.3,0,1.7-0.1,2.3-0.3c0.1-0.6,0.1-4.8,0.1-7.1V143.3z M191.3,144.8c0.8,0,1.7-0.1,2.6-0.4c0.9-0.3,2.4-1.3,2.4-3.5
		c0-1.4-1.2-3-5-3c-0.1,0.9-0.1,4.7-0.1,6.2V144.8z"/>
	<path class="st0" d="M204,142.9c0-1.9,0-4.2-0.1-4.8c-0.5-0.1-1.1-0.2-1.7-0.3l-0.1-0.5c0.6,0,2,0.1,3.6,0.1c1,0,2.6,0,3.2-0.1
		l-0.1,0.5c-0.6,0.1-1.5,0.2-2.2,0.3c-0.1,0.4-0.1,3.1-0.1,4.9v2.9c0,4.5,1.9,6.1,4.2,6.1c1.4,0,2.4-0.3,3.1-1
		c1.2-1.1,1.4-3,1.4-5.6v-2c0-0.7,0-4.6-0.1-5.3c-0.5-0.1-1.8-0.3-2.3-0.3l-0.2-0.5c0.5,0,2.1,0.1,3.5,0.1c1.1,0,2.3,0,2.6-0.1
		l-0.1,0.5c-0.4,0.1-0.9,0.2-1.5,0.3c-0.1,0.3-0.1,3-0.1,3.6v1c0,0.8,0,1.9,0,2.6c0,2.4-0.5,4.5-2.1,5.9c-1,0.9-2.4,1.5-4.5,1.5
		c-4.4,0-6.5-2.7-6.5-6.5V142.9z"/>
	<path class="st0" d="M234.2,153.4c-3-2.3-6.4-6.9-7.4-8c-0.6,0.6-3.1,4.6-3.9,6.3c0.5,0.1,1.4,0.3,1.8,0.3l0.1,0.5
		c-0.3,0-2-0.1-3.2-0.1c-1.2,0-1.8,0-2.3,0.1l0.2-0.5c0.4-0.1,0.9-0.1,1.4-0.3c0.9-0.5,4.9-6.1,5.6-7c-1.5-1.9-4.1-5.6-5.1-6.7
		c-0.4-0.1-0.9-0.2-1.4-0.3l-0.1-0.5c0.3,0,1.4,0.1,3.3,0.1c1.1,0,2.5,0,3.4-0.1l-0.1,0.5c-0.8,0.1-1.4,0.2-1.8,0.3
		c0.3,0.6,2.8,4.3,3.3,4.9c0.6-0.8,2.7-3.8,3.3-4.9c-0.4-0.1-1.2-0.3-1.5-0.3l-0.1-0.5c0.5,0,1.6,0.1,2.8,0.1c0.9,0,1.7,0,2.2-0.1
		l0,0.5c-0.4,0.1-1,0.2-1.3,0.3c-0.4,0.1-4.2,4.7-4.8,5.6c1.2,1.7,5.2,7.5,6.8,9.5L234.2,153.4z"/>
	<path class="st0" d="M236.7,152.7l-0.1-2l2.1-0.4l0.1,2L236.7,152.7z"/>
	<path class="st0" d="M57.4,176.5c0-1.7,0-4.3-0.1-4.8c-0.4-0.1-1.5-0.2-2-0.3l-0.1-0.4c0.4,0,2.5,0.1,3.2,0.1c0.7,0,2.7,0,3-0.1
		l-0.1,0.4c-0.2,0-1.5,0.2-1.9,0.3c-0.1,0.6-0.1,3.4-0.1,4.9v0.6c1.2-1,5.4-4.6,5.9-5.5c-0.4-0.1-1-0.2-1.4-0.3l-0.1-0.4
		c0.8,0,2.1,0.1,2.8,0.1c0.5,0,1.4,0,2-0.1l-0.1,0.4c-0.3,0-0.7,0.1-1.2,0.2c-0.8,0.4-4.2,3.3-5,4c0.7,1.1,6,7.8,7,8.7l-0.6,0.2
		c-1.4-0.6-7.6-6.9-8.1-7.4c-0.3,0.3-0.9,0.7-1.2,1v0.4c0,1.6,0,4.2,0.1,4.9c0.5,0.2,1.8,0.3,2.1,0.3l0,0.4c-0.3,0-2.3-0.1-3.3-0.1
		c-0.9,0-2.6,0-3.1,0.1l0.1-0.4c0.4,0,1.5-0.1,1.9-0.3c0.1-0.8,0.1-3.3,0.1-5.9V176.5z"/>
	<path class="st0" d="M72.1,176.9c0-1.7-0.1-4.6-0.1-5.1c-0.3-0.1-1.5-0.2-1.9-0.3l-0.1-0.4c0.4,0,1,0,1.7,0.1c0.6,0,1.2,0,1.6,0
		c0.6,0,4.9,0,5.4-0.1c0.1-0.2,0.1-0.5,0.1-0.9l0.4-0.1c-0.1,0.4-0.3,3.2-0.4,3.8l-0.4-0.1c0-0.1,0-1,0-1.3
		c-0.3-0.5-3.2-0.8-4.1-0.8c-0.1,0.3-0.1,3.8-0.1,4.9v0.4c1.6,0,3.4-0.1,3.8-0.3c0.1-0.3,0.1-0.5,0.2-0.8l0.4,0
		c-0.1,0.3-0.4,2.8-0.5,3.4l-0.3-0.1c0-0.4,0-0.9,0-1.2c-0.6-0.3-2-0.4-3.6-0.4v0.4c0,1.1,0.1,5.1,0.1,5.7c1.8,0,3.6-0.1,4.4-0.6
		c0.2-0.6,0.3-1.2,0.4-1.6l0.4-0.1c-0.1,0.5-0.5,3.3-0.6,4.2l-0.4-0.1c0-0.5,0-0.8,0-1.1c-0.5-0.1-4.6-0.2-5.8-0.2
		c-0.6,0-2.1,0-2.8,0.1l0.1-0.4c0.3,0,1.4-0.1,1.9-0.3c0.1-0.3,0.1-3.7,0.1-5.7V176.9z"/>
	<path class="st0" d="M83.8,176.9c0-1.7-0.1-4.6-0.1-5.1c-0.3-0.1-1.5-0.2-1.9-0.3l-0.1-0.4c0.4,0,1,0,1.7,0.1c0.6,0,1.2,0,1.6,0
		c0.6,0,4.9,0,5.4-0.1c0.1-0.2,0.1-0.5,0.1-0.9l0.4-0.1c-0.1,0.4-0.3,3.2-0.4,3.8l-0.4-0.1c0-0.1,0-1,0-1.3
		c-0.3-0.5-3.2-0.8-4.1-0.8c-0.1,0.3-0.1,3.8-0.1,4.9v0.4c1.6,0,3.4-0.1,3.8-0.3c0.1-0.3,0.1-0.5,0.2-0.8l0.4,0
		c-0.1,0.3-0.4,2.8-0.5,3.4l-0.3-0.1c0-0.4,0-0.9,0-1.2c-0.6-0.3-2-0.4-3.6-0.4v0.4c0,1.1,0.1,5.1,0.1,5.7c1.8,0,3.6-0.1,4.4-0.6
		c0.2-0.6,0.3-1.2,0.4-1.6l0.4-0.1c-0.1,0.5-0.5,3.3-0.6,4.2l-0.4-0.1c0-0.5,0-0.8,0-1.1c-0.5-0.1-4.6-0.2-5.8-0.2
		c-0.6,0-2.1,0-2.8,0.1l0.1-0.4c0.3,0,1.4-0.1,1.9-0.3c0.1-0.3,0.1-3.7,0.1-5.7V176.9z"/>
	<path class="st0" d="M97.6,177.1c0,1.6,0,5.8,0.1,6.3c0.4,0.1,1.8,0.2,2.3,0.3l0.1,0.4c-0.6,0-2.7-0.1-3.5-0.1
		c-0.9,0-2.7,0-3.2,0.1l0.1-0.4c0.3,0,1.5-0.2,1.9-0.3c0.1-0.8,0.1-4.7,0.1-6.4v-0.7c0-0.6,0-3.9-0.1-4.6c-0.3-0.1-1.5-0.2-2-0.3
		l-0.1-0.4c0.6,0,3.2,0,4.1,0c2,0,3.5,0.2,4.4,0.5c1.6,0.7,1.8,1.8,1.8,2.3c0,1.3-0.5,2.2-1.3,2.9c-1.2,1.2-3.2,1.7-3.9,1.8l0.1-0.5
		c0.7-0.2,2.9-0.8,2.9-3.6c0-1.1-0.6-2-1.5-2.5c-0.6-0.3-1.6-0.4-2.4-0.4c-0.1,0.5-0.1,3.1-0.1,4.7V177.1z"/>
	<path class="st0" d="M111.8,176.2c0-1,0-3.9-0.1-4.5c-0.4-0.1-1.5-0.2-2-0.3l-0.1-0.4c0.5,0,2.1,0.1,3.2,0.1c1.2,0,3,0,3.4-0.1
		l-0.1,0.4c-0.4,0-1.4,0.2-2.2,0.3c-0.1,0.6-0.1,3.2-0.1,4.7v0.7c0,2.4,0,5.9,0.1,6.3c2.2,0,3.7-0.5,4.4-0.9
		c0.3-0.6,0.5-1.6,0.7-2.1l0.4-0.1c-0.4,1.6-0.7,3.6-1,6l-0.4-0.1c0-0.3,0.1-1.7,0.1-2.2c-0.4,0-4.4-0.1-5.4-0.1
		c-0.9,0-2.6,0-3.1,0.1l0.1-0.4c0.3,0,1.6-0.1,1.9-0.3c0.1-0.8,0.1-4.4,0.1-6.2V176.2z"/>
	<path class="st0" d="M122.5,182.3c-1.3-1.4-1.8-2.7-1.8-4.4c0-3.6,3-6.9,8.1-6.9c1.9,0,3.5,0.3,5.1,1.5c1.5,1.1,2.2,2.8,2.2,4.6
		c0,4.5-3.4,7.4-7.9,7.4C126.3,184.3,124.2,184,122.5,182.3z M133.8,178.3c0-3.9-2.7-6.7-5.8-6.7c-2.5,0-5.3,1.7-5.3,5.5
		c0,3.3,2.6,6.5,6.2,6.5C131.7,183.6,133.8,181.2,133.8,178.3z"/>
	<path class="st0" d="M139.9,182.3c-1.3-1.4-1.8-2.7-1.8-4.4c0-3.6,3-6.9,8.1-6.9c1.9,0,3.5,0.3,5.1,1.5c1.5,1.1,2.2,2.8,2.2,4.6
		c0,4.5-3.4,7.4-7.9,7.4C143.7,184.3,141.6,184,139.9,182.3z M151.3,178.3c0-3.9-2.7-6.7-5.8-6.7c-2.5,0-5.3,1.7-5.3,5.5
		c0,3.3,2.6,6.5,6.2,6.5C149.1,183.6,151.3,181.2,151.3,178.3z"/>
	<path class="st0" d="M157.1,176.5c0-1.7,0-4.3-0.1-4.8c-0.4-0.1-1.5-0.2-2-0.3l-0.1-0.4c0.4,0,2.5,0.1,3.2,0.1c0.7,0,2.7,0,3-0.1
		l-0.1,0.4c-0.2,0-1.5,0.2-1.9,0.3c-0.1,0.6-0.1,3.4-0.1,4.9v0.6c1.2-1,5.4-4.6,5.9-5.5c-0.4-0.1-1-0.2-1.4-0.3l-0.1-0.4
		c0.8,0,2.1,0.1,2.8,0.1c0.5,0,1.4,0,2-0.1l-0.1,0.4c-0.3,0-0.7,0.1-1.2,0.2c-0.8,0.4-4.2,3.3-5,4c0.7,1.1,6,7.8,7,8.7l-0.6,0.2
		c-1.4-0.6-7.6-6.9-8.1-7.4c-0.3,0.3-0.9,0.7-1.2,1v0.4c0,1.6,0,4.2,0.1,4.9c0.5,0.2,1.8,0.3,2.1,0.3l0,0.4c-0.3,0-2.3-0.1-3.3-0.1
		c-0.9,0-2.6,0-3.1,0.1l0.1-0.4c0.4,0,1.5-0.1,1.9-0.3c0.1-0.8,0.1-3.3,0.1-5.9V176.5z"/>
	<path class="st0" d="M173.9,177.7c0,2.4,0,5.5,0.1,5.8c0.5,0.1,1.6,0.2,1.9,0.3l0.1,0.4c-0.4,0-2.3-0.1-3.5-0.1
		c-0.6,0-2.3,0-2.9,0.1l0.1-0.4c0.3,0,1.6-0.2,1.9-0.3c0.1-0.8,0.1-4.2,0.1-6v-1.1c0-0.6,0-4-0.1-4.7c-0.4-0.1-1.6-0.2-1.9-0.3
		l-0.1-0.4c0.4,0,2,0.1,3.5,0.1c0.9,0,2.5,0,2.8-0.1l-0.1,0.4c-0.4,0-1.3,0.2-1.9,0.3c-0.1,0.4-0.1,2.5-0.1,4.8V177.7z"/>
	<path class="st0" d="M177.7,171.2c1,0,2.8-0.1,4.2-0.1c0.4,0.6,4.1,5.3,4.4,5.6c0.5,0.5,3.4,4.1,4,4.6c0-2,0-8.5-0.4-9.4
		c-0.4-0.1-1.3-0.2-1.9-0.3l-0.1-0.4c0.3,0,2.3,0.1,2.7,0.1c0.4,0,1.9,0,2.3-0.1l-0.1,0.4c-0.2,0-0.9,0.2-1.4,0.3
		c-0.2,0.7-0.3,3.3-0.3,3.9c-0.1,0.9-0.2,8.6-0.3,9.3c-0.6-0.5-5.6-6.5-6.1-6.9c-0.3-0.3-3.8-4.5-4.4-5.2c-0.1,0.4,0.2,10,0.4,10.7
		c0.3,0.1,1.7,0.2,2,0.3l0.1,0.4c-0.3,0-2.2-0.1-2.7-0.1c-0.5,0-2,0-2.5,0.1l0.1-0.4c0.5-0.1,1.1-0.1,1.5-0.3
		c0.3-0.8,0.5-11.1,0.5-11.7c-0.4-0.1-1.3-0.2-2-0.2L177.7,171.2z"/>
	<path class="st0" d="M207.9,181.6c0,0.7,0,1.7,0,2.2c-1.1,0.3-3.5,0.6-4.7,0.6c-1.2,0-3.3-0.1-4.9-0.9c-2.3-1.2-3.7-3.2-3.7-5.5
		c0-2.6,1.3-4.4,2.9-5.6c1.7-1.1,3.5-1.5,5.4-1.5c1.6,0,3.5,0.2,4.1,0.5c0.1-0.3,0.3-1.3,0.3-1.7l0.4-0.1c-0.1,0.7-0.3,4-0.3,5.7
		l-0.4-0.2c0-0.6-0.1-1.3-0.2-1.7c-0.5-0.6-1.8-1.8-4.8-1.8c-3.2,0-5.3,2.4-5.3,5.3c0,3,2.6,6.8,6.5,6.8c0.5,0,1.6-0.1,2.3-0.5
		c0-0.3,0.1-0.9,0.1-1.8v-1c0-0.6,0-1.1-0.1-1.5c-0.4,0-1.5-0.1-1.9-0.2l-0.1-0.4c1,0,2.4,0.1,3,0.1c0.9,0,2.7,0,2.9-0.1l-0.1,0.4
		c-0.2,0-1.2,0.1-1.6,0.2c-0.1,0.3-0.1,1.5-0.1,2V181.6z"/>
	<path class="st0" d="M212.2,184.3l-0.1-2l2.1-0.4l0.1,2L212.2,184.3z"/>
</g>
</svg>
