<svg id="Layer_1" data-name="Layer 1" xmlns="http://www.w3.org/2000/svg" viewBox="0 0 269.57 353.26"><defs><style>.cls-1{fill:#fff;}</style></defs><title>Artboard 1</title><path class="cls-1" d="M73.73,302.79H74l-18.5-.16Q60,301.24,60,297.74l-.41-47.93a4.83,4.83,0,0,0-3-4.07H70.14a1.28,1.28,0,0,0-.33.24h.82a77.39,77.39,0,0,1,19.8,11.07q.65,11.8.65,22.21,0,2.85-.24,8.46-.73,3.17-6.93,8.62-3.42,3-7.09,6l-2.44.41Zm-5-7.74c.05.16.11.35.16.57a20.52,20.52,0,0,0,5.5,2.44,20.32,20.32,0,0,0,3.48-2.53,9.25,9.25,0,0,0,2.67-3.34V258.54q-.83-2.77-4.54-4.81-2.06-1-6.19-3a16.49,16.49,0,0,0-.74,4.07,16.55,16.55,0,0,1-.74,4.07Z"/><path class="cls-1" d="M114.35,273l-2,4.24a14,14,0,0,0-7.25-1.87q-2.44,0-3,.65l.57,13.36a6.06,6.06,0,0,0,2.77,2.53,12,12,0,0,0,2.2-5.3q.08-.32.41-4.16l3.59,4.56-5,7.09-4.16.08L94.22,287a34.57,34.57,0,0,1-.65-7.09,67,67,0,0,1,1.14-12l9.13-7.17a1.86,1.86,0,0,1,1.63.08l6.6,4.32Zm-5.87.49-4.16-9.37q-.57-.73-.73-.73c-.22,0-.44.19-.65.57l-1,9.29A24.74,24.74,0,0,1,108.48,273.45Z"/><path class="cls-1" d="M135,262.7l-.49,20-8.8,7q-3.26,2.61-4.07,2.61a.63.63,0,0,1-.57-.24l-4.64-6.68q-.16-.16-.16-26.32c0-.38.13-.57.41-.57q.81,0,2.77,1.63,3.5,2.93,3.34,3,.08,8.31.65,22,.81,1.63,3.1,1a29.46,29.46,0,0,0,2.85-3.5q.08-3.58.08-7.09c0-4.22-.33-12.35-.45-15.11a6.22,6.22,0,0,0,2.48,1.18Q134.8,262.7,135,262.7Z"/><path class="cls-1" d="M172.08,284.08q.49,2.12-4.81,6.44-6.44,5.22-12.47,6.11l-2.44-.41q-3.67-3-7.09-6-6.19-5.46-6.93-8.64-.24-5.62-.24-8.47,0-10.43.65-22.25a77.39,77.39,0,0,1,19.8-11.08h2l7.25,9a9.46,9.46,0,0,1,2.12,3.83l-11.33,8.72a8.83,8.83,0,0,0,2.12-5,4.17,4.17,0,0,0-.16-1.14,3.07,3.07,0,0,0,.08-.73q0-1.3-2.89-8.88-2.31,1-6.28,2.93a6.65,6.65,0,0,0-2.89,3.75V286a9.26,9.26,0,0,0,2.69,3.34,14.9,14.9,0,0,0,3.5,2.53q6.11-2,7.33-4.24v-7.74l9.78,2.12Z"/><path class="cls-1" d="M190.2,276.87q.41,2-4.48,4.56a21.15,21.15,0,0,1-6.68,2.44l-1.47-.24q-8.23-6.36-8.72-8.15-.16-3.83.73-18.9a45.62,45.62,0,0,1,11.65-6.19l5.78,4,.65,1.06q1.79,1.71,2.12,7.33Q190,265.62,190.2,276.87Zm-7.82,2q0-21.27-1.55-25.18l-2.61,1.55a5,5,0,0,0-1.79,2.2l.41,21.43a3.93,3.93,0,0,0,2.2,2.36A5.32,5.32,0,0,0,182.38,278.82Z"/><path class="cls-1" d="M189.88,255.11q4.16-2.85,9.45-7.09v7.33q1.55-1.87,3.91-4.32,3.42-2.61,4.07-2.61a.63.63,0,0,1,.57.24l4.64,6.68q.08.08.08,26.65a1,1,0,0,1-.82,1.06l-7.5,4.4v-.33a5.91,5.91,0,0,0,2-3q-.08-13.69-.73-28.52-.82-1.63-3.1-1a29.35,29.35,0,0,0-2.85,3.5q-.24,9.29.41,19.88a3.13,3.13,0,0,0,2.53,3.18q-1.14,0-3.46-.08t-3.46-.08q-.73,0-2.24.08t-2.24.08a6.89,6.89,0,0,0,2.53-1.47,2.58,2.58,0,0,0,.33-1.63V254.95Z"/><path class="cls-1" d="M138.43,305.36l-4.74,6.47-.52,1.18.07,3.67a2.41,2.41,0,0,0,1.7.46l.13.33h-5.76l.07-.33a4,4,0,0,0,1.64-.33v-4.39l-4.72-6.75-.52-.66q-.39-.72-2.16-.72l-.13-.39a51.36,51.36,0,0,0,6.42.13l-.39.39q-1.64,0-1.7.33l5.11,7.14,4.8-6.54a3.59,3.59,0,0,0-2-.33l-.46-.33h5.11l-.2.26Q138.76,304.9,138.43,305.36Z"/><path class="cls-1" d="M146.44,311.69q.13-2-1.12-1.93l-4.31.06.07,3.52c.14.27.89.29,1.85.16l.68-1.15.36.08a6.41,6.41,0,0,0-.67,3.33l-.29-.07-.16-1.47a3.2,3.2,0,0,0-1.92.12v3.14c0,.45,2.41.58,3.75.38q.88.09,1-1.33l.36-.19-.09,4-.45-.25c0-1.46-.16-1.56-.65-1.69l-6.77.12.07-.26q1.24,0,1.33-.61V310a5.29,5.29,0,0,0-1.78-.4l-.19-.25,7.84-.09q.89.07,1.13-1.6l.39-.17-.11,4.52Z"/><path class="cls-1" d="M146.49,315.72l-.07-.2a2.12,2.12,0,0,0,1.51-.59l3.14-8.19q-.13-.66-1.64-.39l-.07-.33h5.7l-.13.26q-1.57-.2-1.64.59L156.81,318a11.16,11.16,0,0,0,1.64.2l-.07.26q-2.49.06-4.78,0l.26-.26q1.11.07,1.31-.33l-1.74-5.68a21.77,21.77,0,0,0-3.86.13l-.85,2.69a2.81,2.81,0,0,0,1.57.33l.07.39Zm6.81-3.93-1.44-4.85q-.2-.07-.39.26l-1.57,4.26Z"/><path class="cls-1" d="M157.53,305.13c1.76.22,6.58,0,7.86.07,2.58.61,3.1,1.79,2.72,3.54s-2,2.72-4.33,3.29l4.24,4.17q.2.33,1.31.33l.13.33h-5l.2-.26q1.31-.13,1.51-.39l-3.65-3.71q-.66-.39-.07-.66c2.75-.79,4.17-1.88,3.78-3.65s-1.43-2.6-4.26-2.49q-.79-.1-.85.43v8.73q.13.85,1.7.79l.13.26h-5.76l.13-.26q1.64.13,2-.79v-8.66q-.2-.66-1.57-.59Z"/><path class="cls-1" d="M183.92,307.09l-.36-.27c-.06-2.5-.52-3.65-1.18-3.92q-3.64-1-4.64,1.43t3.23,3.17q4.23.76,4.19,4.77t-3.78,4.46q-3.73.45-5-1.34-.64,0-.64,2.59l-.46.36a37.81,37.81,0,0,0-.09-7.85l.46.27q.18,3.3,1.82,4.59a3.52,3.52,0,0,0,3.73.45,2.79,2.79,0,0,0,1.78-3.3q-.32-2.45-3.87-3.08t-3-4.19c.39-2.38,2.46-3.87,5.93-3.22.9.17,1.43.39,1.67-1.39l.36-.18A17.44,17.44,0,0,0,183.92,307.09Z"/><path class="cls-1" d="M186.13,307.54a24.53,24.53,0,0,0,5.37.07l-.07.39q-1.64,0-1.7.52v9q.33.79,1.64.66l.2.39H185.8l.13-.26a2.39,2.39,0,0,0,2-.79v-8.94q-.2-.66-1.57-.59Z"/><path class="cls-1" d="M196.41,304.56l-.19.26q-1.28.13-1,.59l3.65,4.45,3.86-4a5,5,0,0,0-2.32-.39l-.3-.33h6l-.36.33a2.68,2.68,0,0,0-1.86.52l-4.52,4.56,5.62,6.88a3.45,3.45,0,0,0,1.4.2l.37.39H200.9l.19-.26q1.78,0,1.46-.79l-4.26-5.24-3.9,3.83q-.19.59,1.69.52l.34.26h-5.1l.19-.26L193,316l4.69-5L193,305.35q-.32-.46-1.93-.52l-.22-.26Z"/><path class="cls-1" d="M59.93,55.35a10.55,10.55,0,0,0-.05-1.19,50.87,50.87,0,0,0-4.39-6.32,9.12,9.12,0,0,0-1.26-.25l-.07-.38c.31,0,1.49.07,3.13.07,1,0,2.23,0,2.48-.07l-.09.38c-.32.07-1.13.16-1.55.25,1.06,1.87,2.9,4.5,3.46,5.46.29-.52,3.06-4.72,3.11-5.46-.38-.09-1.17-.22-1.4-.25l-.05-.38c.27,0,1.28.07,2.27.07.83,0,1.76,0,2.18-.07l-.05.38c-.27.05-.85.14-1.22.25A38,38,0,0,0,62.05,54,8.89,8.89,0,0,0,62,55.3V56c0,.49,0,2.9.09,3.35.22.05,1.4.2,1.75.25l0,.38c-.38,0-2-.07-3.22-.07-.65,0-2,0-2.47.07l.09-.38a14.38,14.38,0,0,0,1.58-.25c.07-.27.09-2.25.09-3.4Z"/><path class="cls-1" d="M68.91,58.16a5.68,5.68,0,0,1-1.73-4.36c0-3.56,2.94-6.81,7.9-6.81a7.71,7.71,0,0,1,5,1.46,5.58,5.58,0,0,1,2.18,4.47c0,4.41-3.35,7.26-7.78,7.26A7.33,7.33,0,0,1,68.91,58.16Zm11.15-3.93c0-3.82-2.65-6.55-5.64-6.55A5,5,0,0,0,69.25,53a6.36,6.36,0,0,0,6.1,6.39A5,5,0,0,0,80.06,54.24Z"/><path class="cls-1" d="M85.42,51.91c0-1.62,0-3.56-.09-4.07-.38-.09-.94-.18-1.42-.25l-.05-.38c.5,0,1.66.07,3,.07.83,0,2.21,0,2.67-.07l-.09.38c-.49.05-1.3.14-1.87.25-.05.31-.09,2.59-.09,4.14v2.39c0,3.82,1.62,5.11,3.56,5.11a3.52,3.52,0,0,0,2.59-.86c1-.92,1.21-2.5,1.21-4.66V52.31c0-.58,0-3.87-.09-4.47-.41-.07-1.49-.22-2-.25l-.13-.38c.45,0,1.8.07,2.92.07.94,0,1.89,0,2.2-.07l-.11.38c-.31.07-.79.14-1.26.25-.05.27-.09,2.52-.09,3v.86c0,.7,0,1.57,0,2.21,0,2-.38,3.76-1.76,5a5.34,5.34,0,0,1-3.76,1.26c-3.73,0-5.44-2.3-5.44-5.46Z"/><path class="cls-1" d="M101.4,52.29c0-.65,0-4.11-.09-4.45-.31-.07-1.53-.18-1.93-.22l-.05-.38,3.89,0a16.36,16.36,0,0,1,5.08.5,2.16,2.16,0,0,1,1.55,2.05c0,1.13-1.15,2.63-2.54,3.4a48.66,48.66,0,0,0,5,7.15l-.79.13c-1.26-.58-6-6.1-6.34-6.48-.68.05-1.42.11-1.73.11v.47c0,1.17,0,3.94.09,4.77a18.62,18.62,0,0,0,1.89.25l.07.38c-.45,0-2.27-.07-3.1-.07s-2.63,0-3,.07l.07-.38a16.53,16.53,0,0,0,1.91-.25c.07-.52.09-4.05.09-5.94Zm2,1.24a6.24,6.24,0,0,0,2.2-.34,3,3,0,0,0,2.05-2.9c0-1.15-1-2.56-4.16-2.56-.05.74-.09,4-.09,5.24Z"/><path class="cls-1" d="M129.56,59.58l2-.22c0-.67-1.6-8.77-1.82-10.1h-.07c-.49,1.1-4,9.74-4.57,10.77-.5-1.12-3.89-10.1-4.1-10.79h-.07c-.47,2.75-1.53,7.76-1.46,10.08.32.07,1.33.22,1.6.25l.07.38c-.25,0-2.34-.07-2.68-.07s-1.4,0-2,.07l.13-.38c.31-.05.88-.13,1.28-.23.4-1.13,2.36-10,2.63-11.51l-1.78-.25-.11-.38c.23,0,1.64.07,2.59.07.77,0,2.2,0,2.7-.07l-.07.38a13.15,13.15,0,0,0-1.35.25c.52,1.64,2.72,7.53,3.28,8.89.52-1,3.64-8.48,3.67-8.89a7.83,7.83,0,0,0-1.22-.25l-.09-.38c.58,0,1.8.07,2.43.07s2.09,0,2.5-.07l-.05.38c-.25,0-1.13.16-1.51.25.34,2,2.05,10.35,2.36,11.49.45.11,1.17.2,1.49.25l.09.38c-.61,0-1.69-.07-2.54-.07s-2.81,0-3.33.07Z"/><path class="cls-1" d="M143.3,59.58a13.81,13.81,0,0,0,1.82-.25c-.32-.94-1.6-4.75-1.89-5.28-.63,0-3.49.13-4.16.23a42.77,42.77,0,0,0-1.26,5,10.28,10.28,0,0,0,1.55.25l.07.38c-.56,0-2.2-.07-2.72-.07s-1.67,0-2.09.07l.05-.38a13.85,13.85,0,0,0,1.55-.25c.65-1.13,4.23-10.82,4.48-11.51a11.78,11.78,0,0,0-1.42-.23l0-.38c.54,0,2,.07,2.34.07.76,0,2.56,0,3.08-.07l-.05.38a10.36,10.36,0,0,0-1.37.23c.22.79,1.21,3.62,1.89,5.51a62,62,0,0,0,2.45,6c.52.11,1,.18,1.58.25l.05.38c-.22,0-2-.07-3-.07-.52,0-2.56,0-3,.07Zm-2-11.45h0c-.56,1.6-1.73,4.72-1.91,5.31l3.78.07C142.71,52.33,141.58,49.12,141.27,48.13Z"/><path class="cls-1" d="M162.19,57.46c0,.67,0,1.62,0,2.12a22.1,22.1,0,0,1-4.61.59,11.54,11.54,0,0,1-4.77-.86,6.07,6.07,0,0,1-3.58-5.42,6.4,6.4,0,0,1,2.85-5.44A9.11,9.11,0,0,1,157.4,47a16.69,16.69,0,0,1,4,.45c.07-.29.27-1.3.32-1.67l.41-.09a49.63,49.63,0,0,0-.25,5.56L161.5,51a15.51,15.51,0,0,0-.2-1.66c-.47-.56-1.75-1.75-4.68-1.75a5.06,5.06,0,0,0-5.22,5.2c0,2.94,2.5,6.7,6.39,6.7a5.49,5.49,0,0,0,2.29-.47,17.8,17.8,0,0,0,.05-1.78v-1a10.47,10.47,0,0,0-.07-1.44c-.36,0-1.48-.13-1.82-.2l-.11-.38c.94,0,2.32.05,3,.05.86,0,2.61,0,2.83-.05l-.09.38c-.16,0-1.17.11-1.57.2-.05.31-.07,1.49-.07,2Z"/><path class="cls-1" d="M169.53,53.62c0,2.34,0,5.35.09,5.71.45.11,1.53.22,1.89.25l.09.38c-.4,0-2.27-.07-3.38-.07-.61,0-2.27,0-2.81.07l.07-.38c.31,0,1.53-.18,1.91-.25.07-.76.09-4.09.09-5.85V52.42c0-.59,0-4-.09-4.57-.36-.07-1.55-.22-1.89-.25l-.09-.38c.34,0,2,.07,3.42.07.92,0,2.47,0,2.77-.07l-.09.38c-.36,0-1.24.18-1.89.25-.07.36-.09,2.45-.09,4.66Z"/><path class="cls-1" d="M185.14,51.21a13.33,13.33,0,0,0-.11-1.49,5,5,0,0,0-4.34-2.09,5.1,5.1,0,0,0-5.35,5.19A6.57,6.57,0,0,0,182,59.3a8.57,8.57,0,0,0,4.27-1l-.25.77A9.66,9.66,0,0,1,181,60.18a10.2,10.2,0,0,1-4.09-.79,6.18,6.18,0,0,1-3.73-5.51A6.35,6.35,0,0,1,176,48.49,8.82,8.82,0,0,1,181.39,47a16.65,16.65,0,0,1,3.76.47c.11-.23.32-1.39.38-1.6l.41-.09a44.64,44.64,0,0,0-.4,5.56Z"/><path class="cls-1" d="M194.8,59.58a13.81,13.81,0,0,0,1.82-.25c-.32-.94-1.6-4.75-1.89-5.28-.63,0-3.49.13-4.16.23a42.77,42.77,0,0,0-1.26,5,10.28,10.28,0,0,0,1.55.25l.07.38c-.56,0-2.2-.07-2.72-.07s-1.67,0-2.09.07l.05-.38a13.85,13.85,0,0,0,1.55-.25c.65-1.13,4.23-10.82,4.48-11.51a11.78,11.78,0,0,0-1.42-.23l0-.38c.54,0,2,.07,2.34.07.76,0,2.56,0,3.08-.07l-.05.38a10.36,10.36,0,0,0-1.37.23c.22.79,1.21,3.62,1.89,5.51a62,62,0,0,0,2.45,6c.52.11,1,.18,1.58.25l.05.38c-.22,0-2-.07-3-.07-.52,0-2.56,0-3,.07Zm-2-11.45h0c-.56,1.6-1.73,4.72-1.91,5.31l3.78.07C194.21,52.33,193.07,49.12,192.77,48.13Z"/><path class="cls-1" d="M202.86,52.24c0-1,0-3.82-.09-4.39-.4-.07-1.46-.22-1.93-.25l-.05-.38c.45,0,2,.07,3.12.07s3,0,3.31-.07l-.09.38c-.43,0-1.4.18-2.12.25-.07.58-.09,3.17-.09,4.61v.65c0,2.36,0,5.82.09,6.21a8.38,8.38,0,0,0,4.3-.92,17.6,17.6,0,0,0,.65-2.05l.43-.07a50.45,50.45,0,0,0-1,5.92l-.41-.09c0-.25.09-1.62.09-2.11-.4,0-4.29-.11-5.26-.11s-2.56,0-3.06.07l.07-.38a13.3,13.3,0,0,0,1.91-.25c.07-.79.09-4.27.09-6Z"/><path class="cls-1" d="M47,79.76a5.68,5.68,0,0,1-1.73-4.36c0-3.56,2.94-6.81,7.9-6.81a7.71,7.71,0,0,1,5,1.46,5.58,5.58,0,0,1,2.18,4.47c0,4.41-3.35,7.26-7.78,7.26A7.33,7.33,0,0,1,47,79.76Zm11.15-3.93c0-3.82-2.65-6.55-5.64-6.55a5,5,0,0,0-5.17,5.37A6.36,6.36,0,0,0,53.47,81,5,5,0,0,0,58.17,75.84Z"/><path class="cls-1" d="M63.92,74.29c0-1.3-.05-4.11-.13-4.84a18.29,18.29,0,0,0-1.85-.18l-.09-.38c.59,0,4-.14,5.17-.14,3.51,0,4.05,1.49,4.05,2.34a2.72,2.72,0,0,1-.47,1.69,5.2,5.2,0,0,1-2.32,1.87v.05C70.06,75,72,76.27,72,78.18c0,2.07-1.69,3.46-4.2,3.46-.25,0-.86,0-1.51-.07s-1.3-.07-1.67-.07-2.21,0-2.74.07l.07-.38a15.69,15.69,0,0,0,1.87-.25c.13-1.24.13-3.93.13-5.51Zm1.94.41A3.79,3.79,0,0,0,68,74.09a2.79,2.79,0,0,0,1-2.27,2.37,2.37,0,0,0-2.43-2.59,2,2,0,0,0-.72.11c0,.18-.05,2.74-.05,4.36Zm0,1.51a41.26,41.26,0,0,0,.22,4.47,2.83,2.83,0,0,0,1.44.38c1.71,0,2.43-1,2.43-2.2a3.81,3.81,0,0,0-2-3.19,4.29,4.29,0,0,0-2.12-.43Z"/><path class="cls-1" d="M78.27,75V79.2a6,6,0,0,1-.85,3.64,10.76,10.76,0,0,1-3.1,3.06l-.38-.13a6.84,6.84,0,0,0,1.91-3.22,34.35,34.35,0,0,0,.43-7.2V74.11c0-.68,0-3.73-.16-4.66-.43-.07-1.85-.22-2.38-.25l-.07-.38c.43,0,2.56.07,3.55.07s2.5,0,3.11-.07l-.05.38c-.31,0-1.3.18-1.93.25-.07.56-.09,4.25-.09,4.65Z"/><path class="cls-1" d="M83.76,74.49c0-1.62-.05-4.48-.13-5-.34-.07-1.44-.2-1.87-.25l-.07-.38,1.62.05,1.58,0c.58,0,4.81,0,5.29-.13a6.77,6.77,0,0,0,.14-.85l.41-.07c-.09.38-.32,3.17-.36,3.73l-.4-.13c0-.13,0-.94,0-1.3-.32-.52-3.1-.76-4.05-.76-.05.25-.13,3.73-.13,4.79v.36a17.94,17.94,0,0,0,3.73-.29,4.29,4.29,0,0,0,.18-.77l.38,0c-.05.32-.38,2.79-.47,3.37l-.34-.14c0-.38,0-.85,0-1.21a10.13,10.13,0,0,0-3.51-.4v.36c0,1.1.07,5,.13,5.55a10.45,10.45,0,0,0,4.32-.61c.2-.63.29-1.19.4-1.58l.41-.11c-.13.52-.52,3.26-.59,4.16l-.38-.07c0-.49,0-.81,0-1.1-.52-.09-4.52-.16-5.65-.16-.61,0-2,0-2.74.07l.09-.38a14.47,14.47,0,0,0,1.85-.25c.07-.32.13-3.64.13-5.62Z"/><path class="cls-1" d="M105.24,72.81a13.21,13.21,0,0,0-.11-1.49,5,5,0,0,0-4.34-2.09,5.1,5.1,0,0,0-5.35,5.19,6.57,6.57,0,0,0,6.7,6.48,8.57,8.57,0,0,0,4.27-1l-.25.77a9.67,9.67,0,0,1-5.06,1.08A10.22,10.22,0,0,1,97,81a6.18,6.18,0,0,1-3.73-5.51,6.35,6.35,0,0,1,2.84-5.38,8.82,8.82,0,0,1,5.37-1.49,16.66,16.66,0,0,1,3.76.47c.11-.23.32-1.39.38-1.6l.41-.09a44.56,44.56,0,0,0-.4,5.56Z"/><path class="cls-1" d="M112.36,74.05c0-1.33,0-4-.09-4.41-2.88,0-4.18.45-4.66.76a12.87,12.87,0,0,0-.36,1.69l-.41.11c.07-.86.29-3.11.27-4.54l.41.07c0,.23.05.79.11,1.17.29.05,3.39.18,5.82.18,2.61,0,5.73-.13,6-.18.07-.22.18-.77.25-1.12l.45-.07c-.11.41-.52,4.1-.58,4.65l-.41-.11c0-.72.05-1.46,0-1.85a13.07,13.07,0,0,0-4.7-.76c-.05.49-.09,3.12-.09,4.41v.81c0,1.58,0,4.63.09,6.07.34.05,2,.22,2.32.25l.07.38c-.43,0-2.54-.07-3.53-.07-.81,0-3,0-3.49.07l.09-.38,2.3-.25c.05-1.4.09-4.5.09-6.07Z"/><path class="cls-1" d="M127.54,73.91c0-.81,0-4.11-.13-4.47-.47-.09-1.48-.22-1.91-.25l0-.38c.27,0,2.21.07,3,.07s2.77-.07,4.16-.07a12.28,12.28,0,0,1,5.08.83,4.76,4.76,0,0,1,3,4.36c0,3.8-3,7.53-9.9,7.53-1,0-4.83,0-5.26,0l.07-.38a12.52,12.52,0,0,0,1.87-.25c.09-.31.13-3.51.13-5.6Zm2.05,1.58c0,1,.05,4.36.13,5a5.24,5.24,0,0,0,2,.32c3.44,0,6.73-2,6.73-5.85a4.89,4.89,0,0,0-2-4.16,9.34,9.34,0,0,0-5.15-1.33,11.29,11.29,0,0,0-1.58.11c-.05.27-.13,4.41-.13,5.2Z"/><path class="cls-1" d="M144.36,74.49c0-1.62-.05-4.48-.13-5-.34-.07-1.44-.2-1.87-.25l-.07-.38,1.62.05,1.58,0c.58,0,4.81,0,5.29-.13a6.87,6.87,0,0,0,.14-.85l.41-.07c-.09.38-.32,3.17-.36,3.73l-.4-.13c0-.13,0-.94,0-1.3-.32-.52-3.1-.76-4.05-.76-.05.25-.13,3.73-.13,4.79v.36a18,18,0,0,0,3.73-.29,4.37,4.37,0,0,0,.18-.77l.38,0c-.05.32-.38,2.79-.47,3.37l-.34-.14c0-.38,0-.85,0-1.21a10.12,10.12,0,0,0-3.51-.4v.36c0,1.1.07,5,.13,5.55a10.45,10.45,0,0,0,4.32-.61c.2-.63.29-1.19.4-1.58l.41-.11c-.13.52-.52,3.26-.59,4.16l-.38-.07c0-.49,0-.81,0-1.1-.52-.09-4.52-.16-5.65-.16-.61,0-2,0-2.74.07l.09-.38a14.46,14.46,0,0,0,1.85-.25c.07-.32.13-3.64.13-5.62Z"/><path class="cls-1" d="M158.59,74.05c0-1.33,0-4-.09-4.41-2.88,0-4.18.45-4.66.76a13,13,0,0,0-.36,1.69l-.41.11c.07-.86.29-3.11.27-4.54l.41.07c0,.23.05.79.11,1.17.29.05,3.38.18,5.82.18,2.61,0,5.73-.13,6-.18.07-.22.18-.77.25-1.12l.45-.07c-.11.41-.52,4.1-.58,4.65l-.41-.11c0-.72.05-1.46,0-1.85a13.07,13.07,0,0,0-4.7-.76c-.05.49-.09,3.12-.09,4.41v.81c0,1.58,0,4.63.09,6.07.34.05,2,.22,2.32.25l.07.38c-.43,0-2.54-.07-3.53-.07-.81,0-3,0-3.49.07l.09-.38,2.3-.25c.05-1.4.09-4.5.09-6.07Z"/><path class="cls-1" d="M169.26,74.49c0-1.62-.05-4.48-.13-5-.34-.07-1.44-.2-1.87-.25l-.07-.38,1.62.05,1.58,0c.58,0,4.81,0,5.29-.13a6.67,6.67,0,0,0,.14-.85l.41-.07c-.09.38-.32,3.17-.36,3.73l-.4-.13c0-.13,0-.94,0-1.3-.32-.52-3.1-.76-4.05-.76-.05.25-.13,3.73-.13,4.79v.36a18,18,0,0,0,3.73-.29,4.37,4.37,0,0,0,.18-.77l.38,0c-.05.32-.38,2.79-.47,3.37l-.34-.14c0-.38,0-.85,0-1.21a10.13,10.13,0,0,0-3.51-.4v.36c0,1.1.07,5,.13,5.55a10.45,10.45,0,0,0,4.32-.61c.2-.63.29-1.19.4-1.58l.41-.11c-.13.52-.52,3.26-.59,4.16l-.38-.07c0-.49,0-.81,0-1.1-.52-.09-4.52-.16-5.65-.16-.61,0-2,0-2.74.07l.09-.38a14.46,14.46,0,0,0,1.85-.25c.07-.32.13-3.64.13-5.62Z"/><path class="cls-1" d="M183.48,74.05c0-1.33,0-4-.09-4.41-2.88,0-4.18.45-4.66.76a13,13,0,0,0-.36,1.69l-.41.11c.07-.86.29-3.11.27-4.54l.42.07c0,.23.05.79.11,1.17.29.05,3.38.18,5.82.18,2.61,0,5.73-.13,6-.18.07-.22.18-.77.25-1.12l.45-.07c-.11.41-.52,4.1-.58,4.65l-.41-.11c0-.72.05-1.46,0-1.85a13.06,13.06,0,0,0-4.7-.76c-.05.49-.09,3.12-.09,4.41v.81c0,1.58,0,4.63.09,6.07.34.05,2,.22,2.32.25l.07.38c-.43,0-2.54-.07-3.53-.07-.81,0-3,0-3.49.07l.09-.38,2.3-.25c.05-1.4.09-4.5.09-6.07Z"/><path class="cls-1" d="M193.58,79.76a5.68,5.68,0,0,1-1.73-4.36c0-3.56,2.93-6.81,7.9-6.81a7.71,7.71,0,0,1,5,1.46,5.58,5.58,0,0,1,2.18,4.47c0,4.41-3.35,7.26-7.78,7.26A7.33,7.33,0,0,1,193.58,79.76Zm11.15-3.93c0-3.82-2.65-6.55-5.64-6.55a5,5,0,0,0-5.17,5.37A6.36,6.36,0,0,0,200,81,5,5,0,0,0,204.72,75.84Z"/><path class="cls-1" d="M210.46,73.89c0-.65,0-4.11-.09-4.45-.31-.07-1.53-.18-1.93-.22l-.05-.38,3.89,0a16.36,16.36,0,0,1,5.08.5,2.16,2.16,0,0,1,1.55,2.05c0,1.13-1.15,2.63-2.54,3.4a48.72,48.72,0,0,0,5,7.15l-.79.13c-1.26-.58-6-6.1-6.34-6.48-.68.05-1.42.11-1.73.11v.47c0,1.17,0,3.94.09,4.77a18.62,18.62,0,0,0,1.89.25l.07.38c-.45,0-2.27-.07-3.1-.07s-2.63,0-3,.07l.07-.38a16.57,16.57,0,0,0,1.91-.25c.07-.52.09-4.05.09-5.94Zm2,1.24a6.24,6.24,0,0,0,2.2-.34,3,3,0,0,0,2.05-2.9c0-1.15-1-2.56-4.16-2.56-.05.74-.09,4-.09,5.24Z"/><path class="cls-1" d="M44.14,95.6c0-.58,0-4-.09-4.56-.32-.07-1.44-.22-1.89-.25l-.09-.38c.31,0,2,.07,3.17.07s2.65,0,2.94-.07l-.09.38a15.47,15.47,0,0,0-1.75.25c-.07.49-.14,2.61-.14,4.16v.88c.45,0,6.75.07,7.47-.05V95.2c0-1.4,0-3.71-.11-4.16a16.24,16.24,0,0,0-1.78-.25l-.09-.38c.31,0,2,.07,3.1.07s2.68,0,3-.07l-.11.38c-.36,0-1.31.18-1.84.25-.09.36-.13,4.07-.13,4.56v1.26c0,2.09,0,5.06.16,5.67.36.07,1.46.23,1.82.25l.09.38c-.34,0-2.18-.07-3-.07s-2.47,0-3.08.07l.09-.38c.27,0,1.46-.18,1.78-.25.11-.61.11-2.9.11-4.81v-1c-.85,0-7.22.36-7.47.41v.63c0,1.84.07,4.14.14,4.81a14.61,14.61,0,0,0,1.75.25l.09.38c-.38,0-2.16-.07-2.94-.07-.94,0-2.63,0-3.17.07l.11-.38c.41,0,1.53-.18,1.87-.25.07-.85.09-3.87.09-5.24Z"/><path class="cls-1" d="M66.34,102.78a13.8,13.8,0,0,0,1.82-.25c-.32-.94-1.6-4.75-1.89-5.28-.63,0-3.49.13-4.16.23a42.69,42.69,0,0,0-1.26,5,10.26,10.26,0,0,0,1.55.25l.07.38c-.56,0-2.2-.07-2.72-.07s-1.67,0-2.09.07l.05-.38a13.86,13.86,0,0,0,1.55-.25c.65-1.13,4.23-10.82,4.48-11.51a11.81,11.81,0,0,0-1.42-.23l0-.38c.54,0,2,.07,2.34.07.76,0,2.56,0,3.08-.07l-.05.38A10.36,10.36,0,0,0,66.3,91c.22.79,1.21,3.62,1.89,5.51a62,62,0,0,0,2.45,6c.52.11,1,.18,1.58.25l.05.38c-.22,0-2-.07-3-.07-.52,0-2.56,0-3,.07Zm-2-11.45h0c-.56,1.6-1.73,4.72-1.91,5.31l3.78.07C65.74,95.53,64.61,92.32,64.3,91.33Z"/><path class="cls-1" d="M72.42,104.91c0-.25.29-2.25.29-3,0-.47.11-2.41.05-2.84l.41.11a13,13,0,0,0,.13,1.58,3.07,3.07,0,0,0,2.79,2,2.37,2.37,0,0,0,2.56-2.27c0-1.46-1.13-2.18-2.3-2.94-1.76-1.15-3.17-2.16-3.17-4.2,0-1.4,1-3.17,3.71-3.17a10.2,10.2,0,0,1,2.43.32c.13-.43.22-1,.32-1.46l.41-.05a36.4,36.4,0,0,0-.43,4.93l-.41-.18a12.06,12.06,0,0,0-.07-1.37,2.64,2.64,0,0,0-2.4-1.62,1.94,1.94,0,0,0-2.2,1.8c0,1.17,1.22,1.8,2.59,2.67s3,1.94,3,4.21c0,2.5-2,3.93-4.43,3.93a6.45,6.45,0,0,1-2.48-.45c-.09.34-.27,1.21-.4,1.87Z"/><path class="cls-1" d="M88.66,95.51c0-.81,0-4.11-.13-4.47-.47-.09-1.48-.22-1.91-.25l0-.38c.27,0,2.21.07,3,.07s2.77-.07,4.16-.07a12.28,12.28,0,0,1,5.08.83,4.76,4.76,0,0,1,3,4.36c0,3.8-3,7.53-9.9,7.53-1,0-4.83,0-5.26,0l.07-.38a12.52,12.52,0,0,0,1.87-.25c.09-.31.13-3.51.13-5.6Zm2.05,1.58c0,1,.05,4.36.13,5a5.24,5.24,0,0,0,2,.32c3.44,0,6.73-2,6.73-5.85a4.89,4.89,0,0,0-2-4.16,9.34,9.34,0,0,0-5.15-1.33,11.29,11.29,0,0,0-1.58.11c-.05.27-.13,4.41-.13,5.2Z"/><path class="cls-1" d="M105.49,96.09c0-1.62-.05-4.48-.13-5-.34-.07-1.44-.2-1.87-.25l-.07-.38,1.62.05,1.58,0c.58,0,4.81,0,5.29-.13a6.77,6.77,0,0,0,.14-.85l.41-.07c-.09.38-.32,3.17-.36,3.73l-.4-.13c0-.13,0-.94,0-1.3-.32-.52-3.1-.76-4.05-.76-.05.25-.13,3.73-.13,4.79v.36a18,18,0,0,0,3.73-.29,4.37,4.37,0,0,0,.18-.77l.38,0c-.05.32-.38,2.79-.47,3.37l-.34-.14c0-.38,0-.85,0-1.21a10.13,10.13,0,0,0-3.51-.4V97c0,1.1.07,5,.13,5.55A10.45,10.45,0,0,0,112,102c.2-.63.29-1.19.4-1.58l.41-.11c-.13.52-.52,3.26-.59,4.16l-.38-.07c0-.49,0-.81,0-1.1-.52-.09-4.52-.16-5.65-.16-.61,0-2,0-2.74.07l.09-.38a14.45,14.45,0,0,0,1.85-.25c.07-.32.13-3.64.13-5.62Z"/><path class="cls-1" d="M119.71,95.65c0-1.33,0-4-.09-4.41-2.88,0-4.18.45-4.66.76a12.87,12.87,0,0,0-.36,1.69l-.41.11c.07-.86.29-3.12.27-4.54l.41.07c0,.23.05.79.11,1.17.29.05,3.39.18,5.82.18,2.61,0,5.73-.13,6-.18.07-.22.18-.77.25-1.12l.45-.07c-.11.41-.52,4.1-.58,4.65l-.41-.11c0-.72.05-1.46,0-1.85a13.06,13.06,0,0,0-4.7-.76c-.05.49-.09,3.12-.09,4.41v.81c0,1.58,0,4.63.09,6.07.34.05,2,.22,2.32.25l.07.38c-.43,0-2.54-.07-3.53-.07-.81,0-3,0-3.49.07l.09-.38,2.3-.25c.05-1.4.09-4.5.09-6.07Z"/><path class="cls-1" d="M130.38,96.09c0-1.62-.05-4.48-.13-5-.34-.07-1.44-.2-1.87-.25l-.07-.38,1.62.05,1.58,0c.58,0,4.81,0,5.29-.13a6.67,6.67,0,0,0,.14-.85l.41-.07c-.09.38-.32,3.17-.36,3.73l-.4-.13c0-.13,0-.94,0-1.3-.32-.52-3.1-.76-4.05-.76-.05.25-.13,3.73-.13,4.79v.36a18,18,0,0,0,3.73-.29,4.37,4.37,0,0,0,.18-.77l.38,0c-.05.32-.38,2.79-.47,3.37l-.34-.14c0-.38,0-.85,0-1.21a10.13,10.13,0,0,0-3.51-.4V97c0,1.1.07,5,.13,5.55a10.44,10.44,0,0,0,4.32-.61c.2-.63.29-1.19.4-1.58l.41-.11c-.13.52-.52,3.26-.59,4.16l-.38-.07c0-.49,0-.81,0-1.1-.52-.09-4.52-.16-5.65-.16-.61,0-2,0-2.74.07l.09-.38a14.45,14.45,0,0,0,1.85-.25c.07-.32.13-3.64.13-5.62Z"/><path class="cls-1" d="M141.83,95.49c0-.65,0-4.11-.09-4.45-.31-.07-1.53-.18-1.93-.22l-.05-.38,3.89,0a16.36,16.36,0,0,1,5.08.5A2.16,2.16,0,0,1,150.27,93c0,1.13-1.15,2.63-2.54,3.4a48.75,48.75,0,0,0,5,7.15l-.79.13c-1.26-.58-6-6.1-6.34-6.48-.68.05-1.42.11-1.73.11v.47c0,1.17,0,3.94.09,4.77a18.62,18.62,0,0,0,1.89.25l.07.38c-.45,0-2.27-.07-3.1-.07s-2.63,0-3,.07l.07-.38a16.57,16.57,0,0,0,1.91-.25c.07-.52.09-4.05.09-5.94Zm2,1.24a6.24,6.24,0,0,0,2.2-.34,3,3,0,0,0,2.05-2.9c0-1.15-1-2.56-4.16-2.56-.05.74-.09,4-.09,5.24Z"/><path class="cls-1" d="M165.48,102.78l2-.22c0-.67-1.6-8.77-1.82-10.1h-.07c-.49,1.1-4,9.74-4.57,10.77-.5-1.12-3.89-10.1-4.11-10.79h-.07c-.47,2.75-1.53,7.76-1.46,10.08.32.07,1.33.22,1.6.25l.07.38c-.25,0-2.34-.07-2.68-.07s-1.4,0-2,.07l.13-.38c.31-.05.88-.13,1.28-.23.4-1.13,2.36-10,2.63-11.51l-1.78-.25-.11-.38c.23,0,1.64.07,2.59.07.77,0,2.2,0,2.7-.07l-.07.38a13.1,13.1,0,0,0-1.35.25c.52,1.64,2.72,7.53,3.28,8.89.52-1,3.64-8.48,3.67-8.89a7.84,7.84,0,0,0-1.22-.25l-.09-.38c.58,0,1.8.07,2.43.07s2.09,0,2.5-.07l-.05.38c-.25,0-1.13.16-1.51.25.34,2,2.05,10.35,2.36,11.49.45.11,1.17.2,1.49.25l.09.38c-.61,0-1.69-.07-2.54-.07s-2.81,0-3.33.07Z"/><path class="cls-1" d="M176.44,96.82c0,2.34,0,5.35.09,5.71.45.11,1.53.22,1.89.25l.09.38c-.4,0-2.27-.07-3.38-.07-.61,0-2.27,0-2.81.07l.07-.38c.31,0,1.53-.18,1.91-.25.07-.76.09-4.09.09-5.85V95.62c0-.59,0-4-.09-4.57-.36-.07-1.55-.22-1.89-.25l-.09-.38c.34,0,2,.07,3.42.07.92,0,2.47,0,2.77-.07l-.09.38c-.36,0-1.24.18-1.89.25-.07.36-.09,2.45-.09,4.66Z"/><path class="cls-1" d="M180.09,90.49c1,0,2.7-.05,4.11-.13.4.61,4,5.15,4.32,5.47.47.5,3.33,4,3.91,4.47,0-2,0-8.32-.38-9.25-.36-.07-1.31-.22-1.82-.25l-.09-.38c.34,0,2.29.07,2.68.07s1.89,0,2.27-.07l-.07.38c-.23,0-.88.18-1.37.25a29,29,0,0,0-.34,3.82c-.05.85-.2,8.41-.31,9.13-.54-.5-5.53-6.32-5.94-6.79-.25-.27-3.67-4.45-4.27-5.13-.05.36.16,9.81.4,10.46.27.09,1.62.22,2,.25l.05.38c-.32,0-2.2-.07-2.67-.07s-1.93,0-2.45.07l.05-.38a11.19,11.19,0,0,0,1.49-.25c.31-.76.5-10.86.5-11.45a15.86,15.86,0,0,0-2-.22Z"/><path class="cls-1" d="M198.65,96.09c0-1.62-.05-4.48-.13-5-.34-.07-1.44-.2-1.87-.25l-.07-.38,1.62.05,1.58,0c.58,0,4.81,0,5.29-.13a6.67,6.67,0,0,0,.14-.85l.41-.07c-.09.38-.32,3.17-.36,3.73l-.4-.13c0-.13,0-.94,0-1.3-.32-.52-3.1-.76-4.05-.76-.05.25-.13,3.73-.13,4.79v.36a18,18,0,0,0,3.73-.29,4.37,4.37,0,0,0,.18-.77l.38,0c-.05.32-.38,2.79-.47,3.37l-.34-.14c0-.38,0-.85,0-1.21a10.13,10.13,0,0,0-3.51-.4V97c0,1.1.07,5,.13,5.55a10.45,10.45,0,0,0,4.32-.61c.2-.63.29-1.19.4-1.58l.41-.11c-.13.52-.52,3.26-.59,4.16l-.38-.07c0-.49,0-.81,0-1.1-.52-.09-4.52-.16-5.65-.16-.61,0-2,0-2.74.07l.09-.38a14.46,14.46,0,0,0,1.85-.25c.07-.32.13-3.64.13-5.62Z"/><path class="cls-1" d="M210.12,95.51c0-.81,0-4.11-.13-4.47-.47-.09-1.48-.22-1.91-.25l0-.38c.27,0,2.21.07,3,.07s2.77-.07,4.16-.07a12.28,12.28,0,0,1,5.08.83,4.76,4.76,0,0,1,3,4.36c0,3.8-3,7.53-9.9,7.53-1,0-4.83,0-5.26,0l.07-.38a12.52,12.52,0,0,0,1.87-.25c.09-.31.13-3.51.13-5.6Zm2.05,1.58c0,1,.05,4.36.13,5a5.24,5.24,0,0,0,2,.32c3.44,0,6.73-2,6.73-5.85a4.89,4.89,0,0,0-2-4.16,9.34,9.34,0,0,0-5.15-1.33,11.29,11.29,0,0,0-1.58.11c-.05.27-.13,4.41-.13,5.2Z"/><path class="cls-1" d="M44,117.25c0-1.33,0-4-.09-4.41-2.88,0-4.18.45-4.66.76a13,13,0,0,0-.36,1.69l-.41.11c.07-.86.29-3.12.27-4.54l.41.07c0,.23.05.79.11,1.17.29.05,3.39.18,5.82.18,2.61,0,5.73-.13,6-.18.07-.22.18-.77.25-1.12l.45-.07c-.11.41-.52,4.1-.58,4.65l-.41-.11c0-.72.05-1.46,0-1.85a13.06,13.06,0,0,0-4.7-.76c-.05.49-.09,3.12-.09,4.41v.81c0,1.58,0,4.63.09,6.07.34.05,2,.22,2.32.25l.07.38c-.43,0-2.54-.07-3.53-.07-.81,0-3,0-3.49.07l.09-.38,2.3-.25c.05-1.4.09-4.5.09-6.07Z"/><path class="cls-1" d="M54.7,117.2c0-.58,0-4-.09-4.56-.32-.07-1.44-.22-1.89-.25l-.09-.38c.31,0,2,.07,3.17.07s2.65,0,2.94-.07l-.09.38a15.47,15.47,0,0,0-1.75.25c-.07.49-.14,2.61-.14,4.16v.88c.45,0,6.75.07,7.47-.05v-.83c0-1.4,0-3.71-.11-4.16a16.24,16.24,0,0,0-1.78-.25l-.09-.38c.31,0,2,.07,3.1.07s2.68,0,3-.07l-.11.38c-.36,0-1.31.18-1.84.25-.09.36-.13,4.07-.13,4.56v1.26c0,2.09,0,5.06.16,5.67.36.07,1.46.23,1.82.25l.09.38c-.34,0-2.18-.07-3-.07s-2.47,0-3.08.07l.09-.38c.27,0,1.46-.18,1.78-.25.11-.61.11-2.9.11-4.81v-1c-.85,0-7.22.36-7.47.41v.63c0,1.84.07,4.14.14,4.81a14.61,14.61,0,0,0,1.75.25l.09.38c-.38,0-2.16-.07-2.94-.07-.94,0-2.63,0-3.17.07l.11-.38c.41,0,1.53-.18,1.87-.25.07-.85.09-3.87.09-5.24Z"/><path class="cls-1" d="M76.9,124.38a13.8,13.8,0,0,0,1.82-.25c-.32-.94-1.6-4.75-1.89-5.28-.63,0-3.49.13-4.16.23a42.79,42.79,0,0,0-1.26,5,10.27,10.27,0,0,0,1.55.25l.07.38c-.56,0-2.2-.07-2.72-.07s-1.67,0-2.09.07l.05-.38a13.85,13.85,0,0,0,1.55-.25c.65-1.13,4.23-10.82,4.48-11.51a11.78,11.78,0,0,0-1.42-.23l0-.38c.54,0,2,.07,2.34.07.76,0,2.56,0,3.08-.07l-.05.38a10.36,10.36,0,0,0-1.37.23c.22.79,1.21,3.62,1.89,5.51a61.88,61.88,0,0,0,2.45,6c.52.11,1,.18,1.58.25l.05.38c-.22,0-2-.07-3-.07-.52,0-2.56,0-3,.07Zm-2-11.45h0c-.56,1.6-1.73,4.72-1.91,5.31l3.78.07C76.3,117.13,75.17,113.92,74.86,112.93Z"/><path class="cls-1" d="M87.26,117.25c0-1.33,0-4-.09-4.41-2.88,0-4.18.45-4.66.76a12.87,12.87,0,0,0-.36,1.69l-.41.11c.07-.86.29-3.12.27-4.54l.41.07c0,.23.05.79.11,1.17.29.05,3.39.18,5.82.18,2.61,0,5.73-.13,6-.18.07-.22.18-.77.25-1.12l.45-.07c-.11.41-.52,4.1-.58,4.65l-.41-.11c0-.72.05-1.46,0-1.85a13.06,13.06,0,0,0-4.7-.76c-.05.49-.09,3.12-.09,4.41v.81c0,1.58,0,4.63.09,6.07.34.05,2,.22,2.32.25l.07.38c-.43,0-2.54-.07-3.53-.07-.81,0-3,0-3.49.07l.09-.38,2.3-.25c.05-1.4.09-4.5.09-6.07Z"/><path class="cls-1" d="M105.19,117.25c0-1.33,0-4-.09-4.41-2.88,0-4.18.45-4.66.76a12.87,12.87,0,0,0-.36,1.69l-.41.11c.07-.86.29-3.12.27-4.54l.41.07c0,.23.05.79.11,1.17.29.05,3.39.18,5.82.18,2.61,0,5.73-.13,6-.18.07-.22.18-.77.25-1.12l.45-.07c-.11.41-.52,4.1-.58,4.65l-.41-.11c0-.72.05-1.46,0-1.85a13.06,13.06,0,0,0-4.7-.76c-.05.49-.09,3.12-.09,4.41v.81c0,1.58,0,4.63.09,6.07.34.05,2,.22,2.32.25l.07.38c-.43,0-2.54-.07-3.53-.07-.81,0-3,0-3.49.07l.09-.38,2.3-.25c.05-1.4.09-4.5.09-6.07Z"/><path class="cls-1" d="M115.86,117.2c0-.58,0-4-.09-4.56-.32-.07-1.44-.22-1.89-.25l-.09-.38c.31,0,2,.07,3.17.07s2.65,0,2.94-.07l-.09.38a15.47,15.47,0,0,0-1.75.25c-.07.49-.14,2.61-.14,4.16v.88c.45,0,6.75.07,7.47-.05v-.83c0-1.4,0-3.71-.11-4.16a16.24,16.24,0,0,0-1.78-.25l-.09-.38c.31,0,2,.07,3.1.07s2.68,0,3-.07l-.11.38c-.36,0-1.31.18-1.84.25-.09.36-.13,4.07-.13,4.56v1.26c0,2.09,0,5.06.16,5.67.36.07,1.46.23,1.82.25l.09.38c-.34,0-2.18-.07-3-.07s-2.47,0-3.08.07l.09-.38c.27,0,1.46-.18,1.78-.25.11-.61.11-2.9.11-4.81v-1c-.85,0-7.22.36-7.47.41v.63c0,1.84.07,4.14.14,4.81a14.61,14.61,0,0,0,1.75.25l.09.38c-.38,0-2.16-.07-2.94-.07-.94,0-2.63,0-3.17.07l.11-.38c.41,0,1.53-.18,1.87-.25.07-.85.09-3.87.09-5.24Z"/><path class="cls-1" d="M135.36,118.42c0,2.34,0,5.35.09,5.71.45.11,1.53.22,1.89.25l.09.38c-.4,0-2.27-.07-3.38-.07-.61,0-2.27,0-2.81.07l.07-.38c.31,0,1.53-.18,1.91-.25.07-.76.09-4.09.09-5.85v-1.06c0-.59,0-4-.09-4.57-.36-.07-1.55-.22-1.89-.25l-.09-.38c.34,0,2,.07,3.42.07.92,0,2.47,0,2.77-.07l-.09.38c-.36,0-1.24.18-1.89.25-.07.36-.09,2.45-.09,4.66Z"/><path class="cls-1" d="M139.42,126.51c0-.25.29-2.25.29-3,0-.47.11-2.41.05-2.84l.41.11a13.16,13.16,0,0,0,.13,1.58,3.08,3.08,0,0,0,2.79,2,2.37,2.37,0,0,0,2.56-2.27c0-1.46-1.13-2.18-2.3-2.94-1.76-1.15-3.17-2.16-3.17-4.2,0-1.4,1-3.17,3.71-3.17a10.2,10.2,0,0,1,2.43.32c.13-.43.22-1,.32-1.46l.41-.05a36.39,36.39,0,0,0-.43,4.93l-.42-.18a12,12,0,0,0-.07-1.37,2.64,2.64,0,0,0-2.39-1.62,1.94,1.94,0,0,0-2.2,1.8c0,1.17,1.22,1.8,2.59,2.67s3,1.94,3,4.21c0,2.5-2,3.93-4.43,3.93a6.46,6.46,0,0,1-2.49-.45c-.09.34-.27,1.21-.4,1.87Z"/><path class="cls-1" d="M157.71,118.42c0,2.34,0,5.35.09,5.71.45.11,1.53.22,1.89.25l.09.38c-.4,0-2.27-.07-3.39-.07-.61,0-2.27,0-2.81.07l.07-.38c.31,0,1.53-.18,1.91-.25.07-.76.09-4.09.09-5.85v-1.06c0-.59,0-4-.09-4.57-.36-.07-1.55-.22-1.89-.25l-.09-.38c.34,0,2,.07,3.42.07.92,0,2.47,0,2.77-.07l-.09.38c-.36,0-1.24.18-1.89.25-.07.36-.09,2.45-.09,4.66Z"/><path class="cls-1" d="M166.33,117.25c0-1.33,0-4-.09-4.41-2.88,0-4.18.45-4.66.76a13,13,0,0,0-.36,1.69l-.41.11c.07-.86.29-3.12.27-4.54l.42.07c0,.23.05.79.11,1.17.29.05,3.38.18,5.82.18,2.61,0,5.73-.13,6-.18.07-.22.18-.77.25-1.12l.45-.07c-.11.41-.52,4.1-.58,4.65l-.41-.11c0-.72.05-1.46,0-1.85a13.05,13.05,0,0,0-4.7-.76c-.05.49-.09,3.12-.09,4.41v.81c0,1.58,0,4.63.09,6.07.34.05,2,.22,2.32.25l.07.38c-.43,0-2.54-.07-3.53-.07-.81,0-3,0-3.49.07l.09-.38,2.3-.25c.05-1.4.09-4.5.09-6.07Z"/><path class="cls-1" d="M177,117.69c0-1.62-.05-4.48-.13-5-.34-.07-1.44-.2-1.87-.25l-.07-.38,1.62.05,1.58,0c.58,0,4.81,0,5.29-.13a6.87,6.87,0,0,0,.14-.85L184,111c-.09.38-.32,3.17-.36,3.73l-.4-.13c0-.13,0-.94,0-1.3-.32-.52-3.1-.76-4.05-.76-.05.25-.13,3.73-.13,4.79v.36a18,18,0,0,0,3.73-.29,4.37,4.37,0,0,0,.18-.77l.38,0c-.05.32-.38,2.79-.47,3.37l-.34-.14c0-.38,0-.85,0-1.21a10.12,10.12,0,0,0-3.51-.4v.36c0,1.1.07,5,.13,5.55a10.45,10.45,0,0,0,4.32-.61c.2-.63.29-1.19.4-1.58l.41-.11c-.13.52-.52,3.26-.59,4.16l-.38-.07c0-.49,0-.81,0-1.1-.52-.09-4.52-.16-5.65-.16-.61,0-2,0-2.74.07l.09-.38a14.46,14.46,0,0,0,1.85-.25c.07-.32.13-3.64.13-5.62Z"/><path class="cls-1" d="M198.65,124.38l2-.22c0-.67-1.6-8.77-1.82-10.1h-.07c-.49,1.1-4,9.74-4.57,10.77-.5-1.12-3.89-10.1-4.11-10.79H190c-.47,2.75-1.53,7.76-1.46,10.08.32.07,1.33.22,1.6.25l.07.38c-.25,0-2.34-.07-2.68-.07s-1.4,0-2,.07l.13-.38c.31-.05.88-.13,1.28-.23.4-1.13,2.36-10,2.63-11.51l-1.78-.25-.11-.38c.23,0,1.64.07,2.59.07.77,0,2.2,0,2.7-.07l-.07.38a13.1,13.1,0,0,0-1.35.25c.52,1.64,2.72,7.53,3.28,8.89.52-1,3.64-8.48,3.67-8.89a7.84,7.84,0,0,0-1.22-.25l-.09-.38c.58,0,1.8.07,2.43.07s2.09,0,2.5-.07l-.05.38c-.25,0-1.13.16-1.51.25.34,2,2.05,10.35,2.36,11.49.45.11,1.17.2,1.49.25l.09.38c-.61,0-1.69-.07-2.54-.07s-2.81,0-3.33.07Z"/><path class="cls-1" d="M214.11,118.42c0,2.34,0,5.35.09,5.71.45.11,1.53.22,1.89.25l.09.38c-.4,0-2.27-.07-3.38-.07-.61,0-2.27,0-2.81.07l.07-.38c.31,0,1.53-.18,1.91-.25.07-.76.09-4.09.09-5.85v-1.06c0-.59,0-4-.09-4.57-.36-.07-1.55-.22-1.89-.25L210,112c.34,0,2,.07,3.42.07.92,0,2.47,0,2.77-.07l-.09.38c-.36,0-1.24.18-1.89.25-.07.36-.09,2.45-.09,4.66Z"/><path class="cls-1" d="M218.17,126.51c0-.25.29-2.25.29-3,0-.47.11-2.41.05-2.84l.41.11a13,13,0,0,0,.13,1.58,3.08,3.08,0,0,0,2.79,2,2.37,2.37,0,0,0,2.56-2.27c0-1.46-1.13-2.18-2.3-2.94-1.76-1.15-3.17-2.16-3.17-4.2,0-1.4,1-3.17,3.71-3.17a10.2,10.2,0,0,1,2.43.32c.13-.43.22-1,.32-1.46l.41-.05a36.39,36.39,0,0,0-.43,4.93l-.41-.18a11.92,11.92,0,0,0-.07-1.37,2.64,2.64,0,0,0-2.39-1.62,1.94,1.94,0,0,0-2.2,1.8c0,1.17,1.22,1.8,2.59,2.67s3,1.94,3,4.21c0,2.5-2,3.93-4.43,3.93a6.46,6.46,0,0,1-2.49-.45c-.09.34-.27,1.21-.4,1.87Z"/><path class="cls-1" d="M30.29,135.19c1.18,0,3.15-.06,4.79-.15.46.71,4.68,6,5,6.38.55.59,3.88,4.64,4.56,5.21,0-2.33,0-9.7-.44-10.79-.42-.08-1.53-.25-2.12-.29l-.1-.44c.4,0,2.67.08,3.13.08s2.2,0,2.65-.08l-.08.44c-.27,0-1,.21-1.6.29a34,34,0,0,0-.4,4.45c-.06,1-.23,9.81-.36,10.65-.63-.59-6.45-7.37-6.93-7.92-.29-.31-4.28-5.19-5-6-.06.42.19,11.44.46,12.2.31.1,1.89.25,2.29.29l.06.44c-.38,0-2.56-.08-3.11-.08s-2.25,0-2.86.08l.06-.44a13.08,13.08,0,0,0,1.74-.29c.36-.88.59-12.66.59-13.35a18.43,18.43,0,0,0-2.31-.25Z"/><path class="cls-1" d="M51.69,147.87a6.63,6.63,0,0,1-2-5.08c0-4.16,3.42-7.94,9.22-7.94a9,9,0,0,1,5.82,1.7,6.51,6.51,0,0,1,2.54,5.21c0,5.14-3.91,8.46-9.07,8.46A8.55,8.55,0,0,1,51.69,147.87Zm13-4.58c0-4.45-3.09-7.64-6.57-7.64a5.88,5.88,0,0,0-6,6.26c0,3.76,3,7.45,7.12,7.45C62.21,149.37,64.68,146.66,64.68,143.3Z"/><path class="cls-1" d="M75,141.22c0-1.55,0-4.66-.1-5.14-3.36,0-4.87.52-5.44.88a15.14,15.14,0,0,0-.42,2l-.48.13c.08-1,.34-3.63.31-5.29l.48.08c0,.27.06.92.13,1.36.34.06,3.95.21,6.78.21,3,0,6.68-.15,7-.21.08-.25.21-.9.29-1.3l.52-.08c-.13.48-.61,4.79-.67,5.42l-.48-.13c0-.84.06-1.7,0-2.16-.52-.42-3.44-.88-5.48-.88-.06.57-.1,3.63-.1,5.14v.94c0,1.85,0,5.4.1,7.08.4.06,2.31.25,2.71.29l.08.44c-.5,0-3-.08-4.12-.08-.94,0-3.46,0-4.07.08l.1-.44c.48,0,2.18-.23,2.69-.29.06-1.64.1-5.25.1-7.08Z"/><path class="cls-1" d="M98.28,149.53a16.14,16.14,0,0,0,2.12-.29c-.38-1.09-1.87-5.54-2.2-6.15-.73,0-4.07.15-4.85.27a49.86,49.86,0,0,0-1.47,5.88,12,12,0,0,0,1.81.29l.08.44c-.65,0-2.56-.08-3.17-.08s-2,0-2.44.08l.06-.44a16.2,16.2,0,0,0,1.81-.29c.76-1.32,4.93-12.62,5.23-13.42a13.67,13.67,0,0,0-1.66-.27l0-.44c.63,0,2.37.08,2.73.08.88,0,3,0,3.59-.08l-.06.44a12,12,0,0,0-1.6.27c.25.92,1.41,4.22,2.2,6.42a72.37,72.37,0,0,0,2.86,7c.61.13,1.22.21,1.85.29l.06.44c-.25,0-2.37-.08-3.49-.08-.61,0-3,0-3.55.08Zm-2.37-13.35h0c-.65,1.87-2,5.5-2.23,6.19l4.41.08C97.59,141.07,96.27,137.33,95.91,136.18Z"/><path class="cls-1" d="M112.94,141.16c0-.67,0-4.62-.1-5.31-.38-.08-1.68-.25-2.2-.29l-.1-.44c.36,0,2.35.08,3.7.08s3.09,0,3.42-.08l-.1.44a18.07,18.07,0,0,0-2,.29c-.08.57-.17,3-.17,4.85v1c.52,0,7.87.08,8.71-.06v-1c0-1.64,0-4.33-.13-4.85a19,19,0,0,0-2.08-.29l-.1-.44c.36,0,2.31.08,3.61.08s3.13,0,3.51-.08l-.13.44c-.42,0-1.53.21-2.14.29-.1.42-.15,4.75-.15,5.31v1.47c0,2.44,0,5.9.19,6.61.42.08,1.7.27,2.12.29l.1.44c-.4,0-2.54-.08-3.53-.08s-2.88,0-3.59.08l.1-.44c.31,0,1.7-.21,2.08-.29.13-.71.13-3.38.13-5.61v-1.22c-1,0-8.42.42-8.71.48v.73c0,2.14.08,4.83.17,5.61a17,17,0,0,0,2,.29l.1.44c-.44,0-2.52-.08-3.42-.08-1.09,0-3.07,0-3.7.08l.13-.44a22,22,0,0,0,2.18-.29c.08-1,.1-4.51.1-6.11Z"/><path class="cls-1" d="M132.73,147.87a6.63,6.63,0,0,1-2-5.08c0-4.16,3.42-7.94,9.22-7.94a9,9,0,0,1,5.82,1.7,6.51,6.51,0,0,1,2.54,5.21c0,5.14-3.91,8.46-9.07,8.46A8.55,8.55,0,0,1,132.73,147.87Zm13-4.58c0-4.45-3.09-7.64-6.57-7.64a5.88,5.88,0,0,0-6,6.26c0,3.76,3,7.45,7.12,7.45C143.24,149.37,145.72,146.66,145.72,143.3Z"/><path class="cls-1" d="M152.42,141c0-.76,0-4.79-.1-5.19-.36-.08-1.79-.21-2.25-.25l-.06-.44,4.54,0c2,0,4.49,0,5.92.59a2.52,2.52,0,0,1,1.8,2.39c0,1.32-1.34,3.07-3,4a56.79,56.79,0,0,0,5.79,8.34l-.92.15c-1.47-.67-7.05-7.12-7.39-7.56-.8.06-1.66.13-2,.13v.55c0,1.36,0,4.6.1,5.56a21.63,21.63,0,0,0,2.21.29l.08.44c-.53,0-2.65-.08-3.61-.08s-3.07,0-3.55.08l.08-.44a19.24,19.24,0,0,0,2.23-.29c.08-.61.1-4.72.1-6.93Zm2.35,1.45a7.28,7.28,0,0,0,2.56-.4,3.54,3.54,0,0,0,2.39-3.38c0-1.34-1.22-3-4.85-3-.06.86-.1,4.62-.1,6.11Z"/><path class="cls-1" d="M179.83,139.77a15.34,15.34,0,0,0-.13-1.74c-.4-.92-2.35-2.44-5.06-2.44a6,6,0,0,0-6.24,6,7.66,7.66,0,0,0,7.81,7.56,10,10,0,0,0,5-1.13l-.29.9c-.48.4-2.6,1.26-5.9,1.26a11.91,11.91,0,0,1-4.77-.92,7.21,7.21,0,0,1-4.35-6.42,7.4,7.4,0,0,1,3.32-6.28,10.29,10.29,0,0,1,6.26-1.74,19.41,19.41,0,0,1,4.39.55c.13-.27.38-1.62.44-1.87l.48-.1a52,52,0,0,0-.46,6.49Z"/><path class="cls-1" d="M185.12,141c0-.76,0-4.79-.1-5.19-.36-.08-1.79-.21-2.25-.25l-.06-.44,4.54,0c2,0,4.49,0,5.92.59a2.52,2.52,0,0,1,1.8,2.39c0,1.32-1.34,3.07-3,4a56.79,56.79,0,0,0,5.79,8.34l-.92.15c-1.47-.67-7.05-7.12-7.39-7.56-.8.06-1.66.13-2,.13v.55c0,1.36,0,4.6.1,5.56a21.63,21.63,0,0,0,2.21.29l.08.44c-.53,0-2.65-.08-3.61-.08s-3.07,0-3.55.08l.08-.44a19.24,19.24,0,0,0,2.23-.29c.08-.61.1-4.72.1-6.93Zm2.35,1.45a7.28,7.28,0,0,0,2.56-.4,3.54,3.54,0,0,0,2.39-3.38c0-1.34-1.22-3-4.85-3-.06.86-.1,4.62-.1,6.11Z"/><path class="cls-1" d="M200,140.59c0-1.89,0-4.16-.1-4.75-.44-.1-1.09-.21-1.66-.29l-.06-.44c.59,0,1.93.08,3.55.08,1,0,2.58,0,3.11-.08l-.11.44c-.57.06-1.51.17-2.18.29-.06.36-.11,3-.11,4.83v2.79c0,4.45,1.89,6,4.16,6a4.11,4.11,0,0,0,3-1c1.13-1.07,1.41-2.92,1.41-5.44v-1.93c0-.67,0-4.51-.11-5.21-.48-.08-1.74-.25-2.29-.29l-.15-.44c.53,0,2.1.08,3.4.08,1.09,0,2.2,0,2.56-.08l-.12.44c-.36.08-.92.17-1.47.29-.06.31-.1,2.94-.1,3.51v1c0,.82,0,1.83,0,2.58,0,2.37-.44,4.39-2.06,5.82a6.23,6.23,0,0,1-4.39,1.47c-4.35,0-6.34-2.69-6.34-6.36Z"/><path class="cls-1" d="M229.45,150.86c-2.92-2.2-6.3-6.76-7.22-7.81a50.56,50.56,0,0,0-3.86,6.19c.46.1,1.37.25,1.74.29l.06.44c-.34,0-1.93-.08-3.13-.08s-1.76,0-2.29.08l.15-.44a5.75,5.75,0,0,0,1.32-.29c.86-.52,4.81-6,5.5-6.87-1.49-1.89-4-5.52-5-6.53a11.93,11.93,0,0,0-1.36-.29l-.06-.44c.25,0,1.32.08,3.21.08,1.11,0,2.48,0,3.34-.08l-.12.44a13,13,0,0,0-1.79.29c.27.55,2.77,4.24,3.28,4.81a50.34,50.34,0,0,0,3.21-4.81,11.66,11.66,0,0,0-1.49-.29l-.08-.44c.48,0,1.6.08,2.73.08.88,0,1.66,0,2.18-.08l0,.44c-.4.1-1,.21-1.3.29a69.94,69.94,0,0,0-4.75,5.46c1.22,1.66,5.12,7.37,6.63,9.34Z"/><path class="cls-1" d="M232,150.16l-.05-1.93,2.09-.4.09,1.93Z"/><path class="cls-1" d="M56.4,173.53c0-1.69,0-4.2-.09-4.68-.43-.07-1.49-.22-1.93-.25l-.05-.38c.36,0,2.43.07,3.17.07s2.61,0,3-.07l-.07.38c-.22,0-1.42.18-1.84.25-.07.58-.09,3.37-.09,4.84v.56c1.17-1,5.26-4.52,5.78-5.4a12.27,12.27,0,0,0-1.33-.25l-.07-.38c.76,0,2,.07,2.74.07.52,0,1.35,0,2-.07l-.11.38a9,9,0,0,0-1.19.22,58.66,58.66,0,0,0-4.88,3.91c.7,1.12,5.89,7.63,6.82,8.5l-.61.2c-1.4-.54-7.47-6.75-8-7.29-.34.25-.9.72-1.13.94v.43c0,1.57,0,4.09.09,4.75a11.32,11.32,0,0,0,2.05.34l0,.38c-.34,0-2.25-.07-3.22-.07s-2.56,0-3.08.07l.07-.38a17.38,17.38,0,0,0,1.91-.25c.05-.79.09-3.21.09-5.78Z"/><path class="cls-1" d="M70.8,173.89c0-1.62-.05-4.48-.13-5-.34-.07-1.44-.2-1.87-.25l-.07-.38,1.62.05,1.58,0c.58,0,4.81,0,5.29-.13a6.77,6.77,0,0,0,.14-.85l.41-.07c-.09.38-.32,3.17-.36,3.73l-.4-.13c0-.13,0-.94,0-1.3-.32-.52-3.1-.76-4.05-.76-.05.25-.13,3.73-.13,4.79v.36a17.94,17.94,0,0,0,3.73-.29,4.29,4.29,0,0,0,.18-.77l.38,0c-.05.32-.38,2.79-.47,3.37l-.34-.14c0-.38,0-.85,0-1.21a10.13,10.13,0,0,0-3.51-.4v.36c0,1.1.07,5,.13,5.55a10.45,10.45,0,0,0,4.32-.61c.2-.63.29-1.19.4-1.58l.41-.11c-.13.52-.52,3.26-.59,4.16l-.38-.07c0-.49,0-.81,0-1.1-.52-.09-4.52-.16-5.65-.16-.61,0-2,0-2.74.07l.09-.38a14.47,14.47,0,0,0,1.85-.25c.07-.32.13-3.64.13-5.62Z"/><path class="cls-1" d="M82.27,173.89c0-1.62-.05-4.48-.13-5-.34-.07-1.44-.2-1.87-.25l-.07-.38,1.62.05,1.58,0c.58,0,4.81,0,5.29-.13a6.77,6.77,0,0,0,.14-.85l.41-.07c-.09.38-.32,3.17-.36,3.73l-.4-.13c0-.13,0-.94,0-1.3-.32-.52-3.1-.76-4.05-.76-.05.25-.13,3.73-.13,4.79v.36a17.94,17.94,0,0,0,3.73-.29,4.29,4.29,0,0,0,.18-.77l.38,0c-.05.32-.38,2.79-.47,3.37l-.34-.14c0-.38,0-.85,0-1.21a10.13,10.13,0,0,0-3.51-.4v.36c0,1.1.07,5,.13,5.55a10.45,10.45,0,0,0,4.32-.61c.2-.63.29-1.19.4-1.58l.41-.11c-.13.52-.52,3.26-.59,4.16l-.38-.07c0-.49,0-.81,0-1.1-.52-.09-4.52-.16-5.65-.16-.61,0-2,0-2.74.07l.09-.38a14.47,14.47,0,0,0,1.85-.25c.07-.32.13-3.64.13-5.62Z"/><path class="cls-1" d="M95.75,174.12c0,1.53,0,5.69.09,6.21.43.07,1.73.2,2.29.25l.09.38c-.59,0-2.61-.07-3.44-.07s-2.61,0-3.11.07l.07-.38c.27,0,1.44-.16,1.91-.25.07-.79.09-4.63.09-6.3v-.72c0-.58,0-3.85-.09-4.47a12.49,12.49,0,0,0-1.93-.25l-.05-.38,4,0a12.77,12.77,0,0,1,4.34.52,2.41,2.41,0,0,1,1.76,2.21,3.93,3.93,0,0,1-1.24,2.86,7.5,7.5,0,0,1-3.78,1.76l.05-.45a3.46,3.46,0,0,0,2.83-3.53,2.62,2.62,0,0,0-1.46-2.45,5.88,5.88,0,0,0-2.32-.4c-.07.52-.09,3.08-.09,4.63Z"/><path class="cls-1" d="M109.73,173.24c0-1,0-3.82-.09-4.39-.4-.07-1.46-.22-1.93-.25l-.05-.38c.45,0,2,.07,3.11.07s3,0,3.31-.07l-.09.38c-.43,0-1.4.18-2.12.25-.07.58-.09,3.17-.09,4.61v.65c0,2.36,0,5.82.09,6.21a8.37,8.37,0,0,0,4.3-.92,17.59,17.59,0,0,0,.65-2.05l.43-.07a50.55,50.55,0,0,0-1,5.92l-.41-.09c0-.25.09-1.62.09-2.11-.4,0-4.29-.11-5.26-.11s-2.56,0-3.06.07l.07-.38a13.28,13.28,0,0,0,1.91-.25c.07-.79.09-4.27.09-6Z"/><path class="cls-1" d="M120.12,179.16a5.68,5.68,0,0,1-1.73-4.36c0-3.56,2.94-6.81,7.9-6.81a7.71,7.71,0,0,1,5,1.46,5.58,5.58,0,0,1,2.18,4.47c0,4.41-3.35,7.26-7.78,7.26A7.33,7.33,0,0,1,120.12,179.16Zm11.15-3.93c0-3.82-2.65-6.55-5.64-6.55a5,5,0,0,0-5.17,5.37,6.36,6.36,0,0,0,6.1,6.39A5,5,0,0,0,131.27,175.24Z"/><path class="cls-1" d="M137.17,179.16a5.68,5.68,0,0,1-1.73-4.36c0-3.56,2.93-6.81,7.9-6.81a7.71,7.71,0,0,1,5,1.46,5.58,5.58,0,0,1,2.18,4.47c0,4.41-3.35,7.26-7.78,7.26A7.33,7.33,0,0,1,137.17,179.16Zm11.15-3.93c0-3.82-2.65-6.55-5.64-6.55a5,5,0,0,0-5.17,5.37,6.36,6.36,0,0,0,6.1,6.39A5,5,0,0,0,148.31,175.24Z"/><path class="cls-1" d="M154.07,173.53c0-1.69,0-4.2-.09-4.68-.43-.07-1.49-.22-1.93-.25l-.05-.38c.36,0,2.43.07,3.17.07s2.61,0,3-.07l-.07.38c-.22,0-1.42.18-1.84.25-.07.58-.09,3.37-.09,4.84v.56c1.17-1,5.26-4.52,5.78-5.4a12.28,12.28,0,0,0-1.33-.25l-.07-.38c.76,0,2,.07,2.74.07.52,0,1.35,0,2-.07l-.11.38a9,9,0,0,0-1.19.22,58.49,58.49,0,0,0-4.88,3.91c.7,1.12,5.89,7.63,6.82,8.5l-.61.2c-1.41-.54-7.47-6.75-8-7.29-.34.25-.9.72-1.13.94v.43c0,1.57,0,4.09.09,4.75a11.34,11.34,0,0,0,2.05.34l0,.38c-.34,0-2.25-.07-3.22-.07s-2.56,0-3.08.07l.07-.38a17.37,17.37,0,0,0,1.91-.25c.05-.79.09-3.21.09-5.78Z"/><path class="cls-1" d="M170.52,174.62c0,2.34,0,5.35.09,5.71.45.11,1.53.22,1.89.25l.09.38c-.4,0-2.27-.07-3.38-.07-.61,0-2.27,0-2.81.07l.07-.38c.31,0,1.53-.18,1.91-.25.07-.76.09-4.09.09-5.85v-1.06c0-.59,0-4-.09-4.57-.36-.07-1.55-.22-1.89-.25l-.09-.38c.34,0,2,.07,3.42.07.92,0,2.47,0,2.77-.07l-.09.38c-.36,0-1.24.18-1.89.25-.07.36-.09,2.45-.09,4.66Z"/><path class="cls-1" d="M174.17,168.29c1,0,2.7-.05,4.11-.13.4.61,4,5.15,4.32,5.47.47.5,3.33,4,3.91,4.47,0-2,0-8.32-.38-9.25-.36-.07-1.31-.22-1.82-.25l-.09-.38c.34,0,2.29.07,2.68.07s1.89,0,2.27-.07l-.07.38c-.23,0-.88.18-1.37.25a29,29,0,0,0-.34,3.82c-.05.85-.2,8.41-.31,9.13-.54-.5-5.53-6.32-5.94-6.79-.25-.27-3.67-4.45-4.27-5.13-.05.36.16,9.81.4,10.46.27.09,1.62.22,2,.25l.05.38c-.32,0-2.2-.07-2.67-.07s-1.93,0-2.45.07l.05-.38a11.19,11.19,0,0,0,1.49-.25c.31-.76.5-10.86.5-11.45a15.86,15.86,0,0,0-2-.22Z"/><path class="cls-1" d="M203.73,178.46c0,.67,0,1.62,0,2.12a22.09,22.09,0,0,1-4.61.59,11.53,11.53,0,0,1-4.77-.86,6.07,6.07,0,0,1-3.58-5.42,6.4,6.4,0,0,1,2.84-5.44,9.11,9.11,0,0,1,5.29-1.46,16.69,16.69,0,0,1,4,.45c.07-.29.27-1.3.32-1.67l.41-.09a49.63,49.63,0,0,0-.25,5.56L203,172a15.51,15.51,0,0,0-.2-1.66c-.47-.56-1.75-1.75-4.68-1.75a5.06,5.06,0,0,0-5.22,5.2c0,2.94,2.5,6.7,6.39,6.7a5.49,5.49,0,0,0,2.29-.47,17.8,17.8,0,0,0,.05-1.78v-1a10.47,10.47,0,0,0-.07-1.44c-.36,0-1.48-.13-1.82-.2l-.11-.38c.94,0,2.32.05,3,.05.86,0,2.61,0,2.83-.05l-.09.38c-.16,0-1.17.11-1.57.2-.05.31-.07,1.49-.07,2Z"/><path class="cls-1" d="M207.94,181.16l-.05-1.93,2.09-.4.09,1.93Z"/></svg>